<svg width="98" height="88" viewBox="0 0 98 88" fill="none" xmlns="http://www.w3.org/2000/svg">
<path fill-rule="evenodd" clip-rule="evenodd" d="M59.8598 33.6557L41.8518 14.9257C41.1213 14.1679 41.1486 12.9648 41.9025 12.2382L42.0119 12.1405L54.1019 0.574529C54.8597 -0.148131 56.0628 -0.12078 56.7855 0.633123C60.8402 4.86752 69.4575 13.8441 77.8245 22.5631C83.8948 28.8834 89.8445 35.0831 97.1215 42.6921C97.8246 43.4265 97.8207 44.5866 97.1215 45.3132C89.766 53.0007 83.9105 59.0982 77.8555 65.4112C69.4844 74.13 60.9415 83.0282 56.7895 87.3682C56.0669 88.126 54.8676 88.1495 54.1059 87.4268L41.9149 75.7668C41.1571 75.0442 41.1337 73.841 41.8563 73.0793L59.8603 54.3493L2.25532 54.3493C1.20062 54.3493 0.34912 53.4978 0.34912 52.4431L0.349119 35.5721C0.349119 34.5174 1.20459 33.6659 2.25532 33.6659L59.8603 33.6659L59.8598 33.6557Z" fill="white"/>
</svg>
