<svg width="62" height="62" viewBox="0 0 62 62" fill="none" xmlns="http://www.w3.org/2000/svg">
<path d="M13.34 25.55L17.44 17.34C16.81 17.11 16.22 16.81 15.66 16.45L11.56 24.66C12.19 24.89 12.78 25.19 13.34 25.55Z" fill="white"/>
<path d="M44.61 10.56L30.99 8.5C30.95 9.18 30.85 9.84 30.68 10.48L44.12 12.51C44.21 11.84 44.38 11.18 44.61 10.56Z" fill="white"/>
<path d="M55 34.05V23.95C54.67 23.98 54.34 24 54 24C53.66 24 53.33 23.98 53 23.95V34.05C53.33 34.02 53.66 34 54 34C54.34 34 54.67 34.02 55 34.05Z" fill="white"/>
<path d="M45.02 48.39C44.72 47.8 44.49 47.18 44.32 46.52L35.98 49.61C36.28 50.2 36.51 50.82 36.68 51.48L45.02 48.39Z" fill="white"/>
<path d="M14.12 41.9L19.42 47.48C19.86 46.97 20.35 46.51 20.88 46.1L15.58 40.52C15.14 41.03 14.65 41.49 14.12 41.9Z" fill="white"/>
<path d="M17.66 31.44C17.84 32.08 17.94 32.74 17.98 33.42L21.35 32.88C21.19 32.24 21.08 31.57 21.04 30.9L17.66 31.44Z" fill="white"/>
<path d="M28.15 19.02L26.64 16.25C26.09 16.63 25.5 16.96 24.88 17.21L26.4 19.99C26.95 19.62 27.54 19.29 28.15 19.02Z" fill="white"/>
<path d="M43.5 35.8C43.18 36.38 42.81 36.94 42.39 37.46L45.17 39.31C45.48 38.72 45.85 38.16 46.27 37.65L43.5 35.8Z" fill="white"/>
<path d="M29.13 41.36L28.44 44.11C29.11 44.2 29.76 44.36 30.38 44.59L31.07 41.84C30.41 41.74 29.76 41.58 29.13 41.36Z" fill="white"/>
<path d="M45.23 18.81L41.65 21.7C42.12 22.18 42.54 22.7 42.92 23.26L46.37 20.47C45.94 19.96 45.56 19.4 45.23 18.81Z" fill="white"/>
<path d="M23 30C23 35.51 27.49 40 33 40C38.51 40 43 35.51 43 30C43 24.49 38.51 20 33 20C27.49 20 23 24.49 23 30ZM33 24.44C34.53 24.44 35.78 25.68 35.78 27.22C35.78 28.76 34.54 30 33 30C31.46 30 30.22 28.76 30.22 27.22C30.22 25.68 31.46 24.44 33 24.44ZM28.56 33.33C28.56 32.11 29.56 31.11 30.78 31.11H35.22C36.44 31.11 37.44 32.11 37.44 33.33V36.64C36.17 37.49 34.64 37.99 33 37.99C31.36 37.99 29.83 37.49 28.56 36.64V33.33Z" fill="white"/>
<path d="M8 42C12.41 42 16 38.41 16 34C16 29.59 12.41 26 8 26C3.59 26 0 29.59 0 34C0 38.41 3.59 42 8 42ZM8 29C9.38 29 10.5 30.12 10.5 31.5C10.5 32.88 9.38 34 8 34C6.62 34 5.5 32.88 5.5 31.5C5.5 30.12 6.62 29 8 29ZM4 37C4 35.9 4.9 35 6 35H10C11.1 35 12 35.9 12 37V38.46C10.94 39.41 9.54 40 8 40C6.46 40 5.06 39.41 4 38.46V37Z" fill="white"/>
<path d="M21 0C16.59 0 13 3.59 13 8C13 12.41 16.59 16 21 16C25.41 16 29 12.41 29 8C29 3.59 25.41 0 21 0ZM21 3C22.38 3 23.5 4.12 23.5 5.5C23.5 6.88 22.38 8 21 8C19.62 8 18.5 6.88 18.5 5.5C18.5 4.12 19.62 3 21 3ZM25 12.46C23.94 13.41 22.54 14 21 14C19.46 14 18.06 13.41 17 12.46V11C17 9.9 17.9 9 19 9H23C24.1 9 25 9.9 25 11V12.46Z" fill="white"/>
<path d="M54 6C49.59 6 46 9.59 46 14C46 18.41 49.59 22 54 22C58.41 22 62 18.41 62 14C62 9.59 58.41 6 54 6ZM54 9C55.38 9 56.5 10.12 56.5 11.5C56.5 12.88 55.38 14 54 14C52.62 14 51.5 12.88 51.5 11.5C51.5 10.12 52.62 9 54 9ZM58 18.46C56.94 19.41 55.54 20 54 20C52.46 20 51.06 19.41 50 18.46V17C50 15.9 50.9 15 52 15H56C57.1 15 58 15.9 58 17V18.46Z" fill="white"/>
<path d="M35 54C35 49.59 31.41 46 27 46C22.59 46 19 49.59 19 54C19 58.41 22.59 62 27 62C31.41 62 35 58.41 35 54ZM27 49C28.38 49 29.5 50.12 29.5 51.5C29.5 52.88 28.38 54 27 54C25.62 54 24.5 52.88 24.5 51.5C24.5 50.12 25.62 49 27 49ZM31 58.46C29.94 59.41 28.54 60 27 60C25.46 60 24.06 59.41 23 58.46V57C23 55.9 23.9 55 25 55H29C30.1 55 31 55.9 31 57V58.46Z" fill="white"/>
<path d="M54 36C49.59 36 46 39.59 46 44C46 48.41 49.59 52 54 52C58.41 52 62 48.41 62 44C62 39.59 58.41 36 54 36ZM54 39C55.38 39 56.5 40.12 56.5 41.5C56.5 42.88 55.38 44 54 44C52.62 44 51.5 42.88 51.5 41.5C51.5 40.12 52.62 39 54 39ZM58 48.46C56.94 49.41 55.54 50 54 50C52.46 50 51.06 49.41 50 48.46V47C50 45.9 50.9 45 52 45H56C57.1 45 58 45.9 58 47V48.46Z" fill="white"/>
</svg>
