<svg width="88" height="88" viewBox="0 0 88 88" fill="none" xmlns="http://www.w3.org/2000/svg">
<path fill-rule="evenodd" clip-rule="evenodd" d="M55.18 42.2299C56.6527 42.2299 57.8441 43.4174 57.8519 44.8901V63.7611C57.8597 64.3119 57.5198 64.808 57.0003 64.9994C56.4964 65.2104 55.9144 65.0854 55.5394 64.6908L50.5394 59.4603H34.4694C33.6999 59.4525 32.9694 59.1088 32.4694 58.5189L34.8288 55.9994H50.1218C52.6491 55.9955 54.696 53.9447 54.6999 51.4213V42.2221L55.18 42.2299ZM44 12.9999C46.4961 12.9999 48.7461 11.496 49.6992 9.19133C50.6562 6.88663 50.1289 4.23043 48.3633 2.46863C46.5977 0.703027 43.9453 0.175626 41.6406 1.12883C39.332 2.08586 37.8281 4.33583 37.8281 6.82803C37.8281 10.2382 40.5937 12.9999 44 12.9999ZM13.148 58.7379C15.6519 58.7536 17.9175 57.2535 18.8824 54.9449C19.8472 52.6324 19.3238 49.9683 17.5582 48.1949C15.7887 46.4254 13.1285 45.8902 10.816 46.8511C8.50346 47.8082 6.99566 50.0659 6.99956 52.5699C6.99956 55.9683 9.74956 58.7301 13.148 58.7379ZM68.679 52.5699C68.6829 55.066 70.1907 57.3121 72.4954 58.2613C74.8001 59.2145 77.4524 58.6832 79.2142 56.9175C80.9798 55.1519 81.5033 52.4995 80.5501 50.1948C79.593 47.8901 77.3431 46.3901 74.8509 46.3901C73.2103 46.3901 71.64 47.0425 70.4837 48.1987C69.3275 49.3589 68.6751 50.9332 68.679 52.5699ZM60.2181 20.148C68.3236 24.4449 74.3981 31.769 77.1201 40.531C77.1904 40.7732 77.3583 40.9763 77.581 41.0974C77.8037 41.2146 78.0693 41.2381 78.3076 41.1599C78.8037 41.0115 79.1044 40.5076 78.999 39.9997C76.1201 30.7341 69.6865 22.9877 61.108 18.4607C60.8853 18.2342 60.565 18.1287 60.2525 18.1795C59.9361 18.2264 59.6627 18.4178 59.5181 18.699C59.3697 18.9803 59.3619 19.3162 59.5025 19.6014C59.6392 19.8904 59.9056 20.0933 60.2181 20.148ZM60.6282 81.2109C50.2652 86.8632 37.7332 86.8632 27.3702 81.2109C26.9015 80.9805 26.335 81.1523 26.0694 81.6015C25.8468 82.0664 26.0147 82.6249 26.4601 82.8906C37.3901 88.8633 50.6081 88.8633 61.5381 82.8906C61.9834 82.625 62.1513 82.0664 61.9287 81.6015C61.6631 81.1523 61.097 80.9805 60.6282 81.2109ZM9.68722 41.207L9.69113 41.2109C9.92941 41.2891 10.195 41.2656 10.4177 41.1445C10.6404 41.0273 10.8083 40.8242 10.8786 40.5781C13.6013 31.8203 19.6755 24.4961 27.7806 20.1991C28.0892 19.8905 28.1595 19.414 27.9564 19.0272C27.7533 18.6405 27.3197 18.4296 26.89 18.5116C18.3392 23.0389 11.929 30.7616 9.05001 39.9996C8.94063 40.4918 9.21407 40.9918 9.69063 41.1598L9.68722 41.207ZM33.1212 30.539H35.5196V25.2304C35.4259 24.9257 35.4806 24.5976 35.6681 24.3398C35.8595 24.0859 36.1563 23.9336 36.4767 23.9336C36.7931 23.9336 37.0899 24.0859 37.2813 24.3398C37.4688 24.5976 37.5235 24.9257 37.4298 25.2304V30.539H50.5708V25.2304C50.477 24.9257 50.5317 24.5976 50.7192 24.3398C50.9106 24.0859 51.2075 23.9336 51.5239 23.9336C51.8442 23.9336 52.1411 24.0859 52.3325 24.3398C52.52 24.5976 52.5747 24.9257 52.4809 25.2304V30.539H54.8793C55.3911 30.539 55.8793 30.3359 56.2387 29.9765C56.5981 29.6172 56.8012 29.1289 56.8012 28.621V27.4296C56.8012 20.3593 51.0707 14.6286 44.0002 14.6286C36.9297 14.6286 31.1992 20.3591 31.1992 27.4296V28.621C31.1992 29.1288 31.4024 29.6171 31.7617 29.9765C32.1211 30.3359 32.6095 30.539 33.1212 30.539ZM74.8512 60.391C67.7887 60.4106 62.0702 66.1293 62.0502 73.192V74.3912C62.0502 74.9029 62.2612 75.3951 62.6244 75.7506C62.9916 76.11 63.4877 76.3092 63.9994 76.3014H66.39V71.0006C66.3002 70.6998 66.3588 70.3717 66.5502 70.1217C66.7377 69.8678 67.0346 69.7194 67.351 69.7194C67.6635 69.7194 67.9604 69.8678 68.1479 70.1217C68.3393 70.3717 68.3979 70.6998 68.308 71.0006V76.3014H81.421V71.0006C81.3234 70.6959 81.382 70.3678 81.5695 70.11C81.757 69.8561 82.0577 69.7037 82.3742 69.7037C82.6906 69.7037 82.9913 69.8561 83.1788 70.11C83.3663 70.3678 83.4249 70.6959 83.3273 71.0006V76.3014H85.7296C86.7843 76.3014 87.6437 75.4459 87.6476 74.3912V73.192C87.6281 66.1295 81.9099 60.411 74.8512 60.391ZM13.1483 60.391C6.08972 60.4106 0.371318 66.1293 0.351318 73.192V74.3912C0.355225 75.4459 1.2146 76.3014 2.26932 76.3014H4.66772L4.67162 71.0006C4.57397 70.6959 4.63256 70.3678 4.82006 70.11C5.00756 69.8561 5.30834 69.7038 5.62475 69.7038C5.94116 69.7038 6.24194 69.8561 6.42944 70.11C6.61694 70.3678 6.67553 70.6959 6.57788 71.0006V76.3014H19.7189V71.0006C19.6329 70.6998 19.6915 70.3717 19.879 70.1217C20.0705 69.8678 20.3673 69.7194 20.6798 69.7194C20.9962 69.7194 21.2931 69.8678 21.4806 70.1217C21.6681 70.3717 21.7267 70.6998 21.6408 71.0006V76.3014H24.0002C24.5197 76.321 25.0275 76.1295 25.4064 75.7702C25.7853 75.4108 25.9962 74.9108 26.0001 74.3913V73.1921C25.9767 66.1101 20.2308 60.383 13.1483 60.391ZM29.3982 36.871H50.1212C51.59 36.8749 52.7814 38.0702 52.7814 39.539V51.43C52.7736 52.8988 51.5861 54.0862 50.1212 54.0902H34.0002L29.0002 59.3207C28.6252 59.7192 28.0432 59.8481 27.5354 59.6449C27.0276 59.4418 26.6956 58.9496 26.6995 58.3988V39.5398C26.7034 38.8289 26.9885 38.1453 27.4964 37.6453C28.0042 37.1453 28.6873 36.8632 29.3982 36.871ZM45.2811 45.4804C45.2811 46.1757 45.6991 46.8046 46.3397 47.0702C46.9843 47.3359 47.7225 47.1874 48.2147 46.6952C48.7069 46.203 48.8554 45.4647 48.5897 44.8202C48.3241 44.1796 47.6952 43.7616 46.9999 43.7616C46.0507 43.7616 45.2811 44.5312 45.2811 45.4804ZM38.0389 45.4804C38.0389 46.1757 38.4608 46.8046 39.1014 47.0702C39.746 47.3359 40.4842 47.1874 40.9764 46.6952C41.4686 46.203 41.6171 45.4647 41.3475 44.8202C41.0819 44.1796 40.4569 43.7616 39.7616 43.7616C39.2968 43.7499 38.8476 43.9257 38.5194 44.2499C38.1874 44.5741 37.9999 45.0155 37.9999 45.4804L38.0389 45.4804ZM30.8006 45.4804C30.8006 46.1757 31.2186 46.8046 31.8631 47.0702C32.5037 47.3359 33.2459 47.1874 33.7342 46.6952C34.2264 46.203 34.3748 45.4647 34.1092 44.8202C33.8436 44.1796 33.2147 43.7616 32.5194 43.7616C31.5702 43.7616 30.8006 44.5312 30.8006 45.4804Z" fill="white"/>
</svg>
