<svg width="62" height="88" viewBox="0 0 62 88" fill="none" xmlns="http://www.w3.org/2000/svg">
<path fill-rule="evenodd" clip-rule="evenodd" d="M23.113 21.7456C28.9958 21.7456 33.769 16.9761 33.769 11.0896C33.769 5.20679 28.9995 0.433594 23.113 0.433594C17.2302 0.433594 12.457 5.20309 12.457 11.0896C12.4609 16.9763 17.2304 21.7456 23.113 21.7456ZM42.308 45.2496L44.8627 49.316C44.8861 49.3551 44.9213 49.3824 44.9682 49.3941L49.687 50.6129C49.7495 50.6285 49.7925 50.6715 49.812 50.7301C49.8315 50.7887 49.8198 50.8512 49.7768 50.8981L46.7221 54.5153C46.6909 54.5504 46.6792 54.5934 46.6792 54.6403L46.9565 59.5778C46.9604 59.6403 46.9331 59.695 46.8823 59.734C46.8315 59.7692 46.769 59.777 46.7104 59.7536L42.2143 57.8942C42.1674 57.8746 42.1245 57.8746 42.0776 57.8942L37.5815 59.7536C37.5229 59.777 37.4604 59.7692 37.4096 59.734C37.3588 59.6989 37.3315 59.6403 37.3354 59.5778L37.6127 54.6403C37.6166 54.5934 37.601 54.5504 37.5698 54.5153L34.5151 50.8981C34.476 50.8512 34.4643 50.7887 34.4799 50.7301C34.4994 50.6715 34.5424 50.6285 34.6049 50.6129L39.3237 49.3941C39.3706 49.3824 39.4057 49.3551 39.4292 49.316L41.9839 45.2496C42.019 45.1949 42.0698 45.1676 42.1362 45.1676C42.2182 45.1637 42.2728 45.1949 42.308 45.2496ZM47.5502 36.0543C47.4955 36.0348 47.4525 35.9957 47.433 35.941L46.5775 33.3082C46.558 33.2457 46.5111 33.2027 46.4447 33.191C43.6205 32.5856 40.6869 32.5856 37.8627 33.191C37.8002 33.2027 37.7495 33.2496 37.7299 33.3082L36.8745 35.941C36.8549 35.9957 36.8159 36.0387 36.7573 36.0543C34.2221 36.8512 31.9292 38.1949 30.019 39.9488C29.976 39.9879 29.9213 40.0035 29.8627 39.9918L27.1518 39.4136C27.0893 39.4019 27.0268 39.4214 26.9839 39.4683C25.0659 41.5894 23.5855 44.1128 22.687 46.898C22.6674 46.9605 22.6791 47.023 22.726 47.0699L24.5815 49.1285C24.6206 49.1715 24.6362 49.2262 24.6245 49.2847C24.0581 51.8394 24.0581 54.5152 24.6245 57.0699C24.6362 57.1285 24.6245 57.1832 24.5815 57.2262L22.726 59.2848C22.683 59.3317 22.6674 59.3981 22.687 59.4567C23.5854 62.2419 25.0659 64.7692 26.9839 66.8864C27.0268 66.9333 27.0893 66.9528 27.1518 66.9411L29.8627 66.3629C29.9213 66.3512 29.976 66.3668 30.019 66.4059C31.9292 68.1598 34.2221 69.5036 36.7573 70.3004C36.812 70.3199 36.8549 70.359 36.8745 70.4137L37.7338 73.066C37.7534 73.1285 37.8002 73.1715 37.8666 73.1832C40.6908 73.7847 43.6244 73.7887 46.4486 73.1832C46.5111 73.1715 46.5619 73.1246 46.5815 73.066L47.4369 70.4332C47.4565 70.3785 47.4955 70.3355 47.5541 70.3199C50.0893 69.523 52.3822 68.1793 54.2924 66.4254C54.3354 66.3863 54.3901 66.3707 54.4487 66.3824L57.1596 66.9606C57.2221 66.9723 57.2846 66.9528 57.3275 66.9059C59.2455 64.7848 60.7259 62.2614 61.6244 59.4762C61.644 59.4137 61.6322 59.3512 61.5893 59.3043L59.7338 57.2457C59.6947 57.2027 59.6791 57.1481 59.6908 57.0895C60.2572 54.5309 60.2572 51.859 59.6908 49.3043C59.6791 49.2457 59.6908 49.191 59.7338 49.148L61.5893 47.0894C61.6322 47.0425 61.6479 46.9761 61.6283 46.9175C60.7299 44.1323 59.2494 41.6089 57.3314 39.4878C57.2885 39.441 57.226 39.4214 57.1635 39.4331L54.4526 40.0113C54.394 40.023 54.3393 40.0074 54.2963 39.9683C52.3783 38.1949 50.0854 36.8512 47.5502 36.0543ZM42.1557 40.1793C34.9721 40.1793 29.1517 45.9996 29.1517 53.1833C29.1517 60.367 34.972 66.1873 42.1557 66.1873C49.3394 66.1873 55.1597 60.367 55.1597 53.1833C55.1597 46.0036 49.3394 40.1793 42.1557 40.1793ZM50.6362 72.2813V87.3833C50.6362 87.4575 50.5932 87.52 50.5268 87.5474C50.4604 87.5747 50.3862 87.5591 50.3315 87.5083L42.2807 79.4575C42.2104 79.3872 42.0971 79.3872 42.0307 79.4575L33.9799 87.5083C33.9291 87.5591 33.8549 87.5747 33.7846 87.5474C33.7182 87.52 33.6752 87.4575 33.6752 87.3833V72.2813C33.6752 72.2188 33.7026 72.168 33.7573 72.1329C33.808 72.0977 33.8705 72.0938 33.9252 72.1172C34.1596 72.2188 34.394 72.3165 34.6283 72.4102C34.6791 72.4297 34.7143 72.4688 34.7338 72.5196L35.6557 75.3594C35.6752 75.4219 35.7221 75.4649 35.7885 75.4766C38.1166 75.9883 39.6166 76.3203 42.1557 76.3203C44.6987 76.3203 46.1948 75.9883 48.5268 75.4766C48.5893 75.4609 48.6362 75.418 48.6596 75.3594L49.5815 72.5196C49.5971 72.4688 49.6362 72.4297 49.687 72.4102C49.9252 72.3165 50.1596 72.2188 50.3901 72.1172C50.4448 72.0938 50.5073 72.0977 50.5581 72.1329C50.6088 72.1641 50.6362 72.2188 50.6362 72.2813ZM0.366211 46.7223V71.7693C0.366211 73.8005 2.02241 75.4607 4.05761 75.4607H30.9056C31.0033 75.4607 31.0853 75.3826 31.0853 75.281V70.6833C31.0853 70.6208 31.058 70.5661 31.0033 70.5349C30.4095 70.1521 29.8353 69.7419 29.2845 69.2966C29.2415 69.2614 29.1907 69.2497 29.136 69.2614L26.218 69.8825C26.1555 69.8942 26.093 69.8747 26.0501 69.8278L25.0891 68.7731C22.8313 66.3004 21.1321 63.3669 20.1203 60.1754L19.6906 58.816C19.6711 58.7535 19.6828 58.691 19.7297 58.6441L21.7258 56.4253C21.7609 56.3863 21.7766 56.3355 21.7688 56.2808C21.4602 54.23 21.4602 52.1363 21.7688 50.0855C21.7766 50.0308 21.7609 49.98 21.7258 49.941L19.7297 47.7222C19.6867 47.6753 19.6711 47.6128 19.6906 47.5503L20.1203 46.1909C21.132 42.9995 22.8312 40.0659 25.0891 37.5932L26.0501 36.5424C26.093 36.4955 26.1555 36.476 26.218 36.4877L29.136 37.1088C29.1907 37.1205 29.2415 37.1088 29.2845 37.0736C30.9056 35.7767 32.7142 34.7298 34.6478 33.972C34.6985 33.9525 34.7337 33.9134 34.7532 33.8627L35.6751 31.0268C35.6946 30.9643 35.7415 30.9213 35.8079 30.9096C36.8899 30.6713 37.8274 30.4525 38.9173 30.2963C38.9876 30.2846 39.0423 30.2416 39.0619 30.1752C39.0814 30.1088 39.0658 30.0385 39.015 29.9916C34.9017 26.1361 29.3822 23.765 23.335 23.765C10.698 23.7611 0.366211 34.0933 0.366211 46.7223Z" fill="white"/>
</svg>
