<svg width="346" height="534" viewBox="0 0 346 534" fill="none" xmlns="http://www.w3.org/2000/svg">
<g clip-path="url(#clip0_2025_4)">
<path d="M346 0H0V534H346V0Z" fill="white"/>
<path d="M345.968 -53.5793C306.931 -50.208 274.893 -35.2882 240.83 -11.1152C209.428 11.1784 193.457 -15.2612 171.791 -40.2088C150.496 -64.7261 113.442 -45.9903 88.3189 -55.0139C57.1401 -66.2037 31.9743 -56.5632 0.0107422 -53.5793V-58.2417C31.6562 -61.2974 57.1189 -71.5691 88.1068 -60.6662C113.22 -51.8434 150.464 -68.1978 171.887 -44.3118C193.192 -20.5405 208.845 6.97505 239.791 -13.181C274.734 -35.9337 306.486 -53.8949 345.968 -58.2417V-53.5793Z" fill="#0007A0"/>
<path d="M345.968 -36.4213C308.819 -36.493 275.349 -32.5622 244.637 -3.3969C231.063 9.48577 215.325 15.4106 199.163 7.85032C185.758 1.56679 181.018 -12.8652 171.462 -25.1167C150.581 -51.8719 114.418 -24.4855 89.0931 -34.2407C75.6989 -39.4053 68.4238 -45.5884 54.0116 -44.9572C35.93 -44.1681 18.1135 -37.9133 0.0107422 -36.4213V-41.3276C18.0287 -42.8626 35.8027 -49.3614 53.7889 -50.1504C68.1163 -50.7673 75.4762 -45.2441 88.8703 -40.1799C114.11 -30.6542 150.56 -55.5732 171.547 -29.4635C193.881 -1.66105 211.56 22.7701 243.555 -5.66357C275.052 -33.6525 308.395 -40.4812 345.958 -41.342V-36.4357L345.968 -36.4213Z" fill="#0007A0"/>
<path d="M345.968 -19.2638C309.901 -22.2908 276.717 -27.9718 248.147 5.13871C234.774 20.6324 217.552 31.3201 199.64 24.8214C184.538 19.3556 180.911 3.99104 171.144 -9.86716C150.677 -38.9034 115.563 -3.08152 89.8036 -13.6975C76.1337 -19.3355 69.654 -26.9532 54.7327 -26.9532C36.4815 -26.9532 18.262 -20.6266 0.0107422 -19.2638V-24.4283C18.2196 -25.8199 36.3224 -32.1034 54.5206 -32.3473C69.2935 -32.5338 76.017 -25.3321 89.6021 -19.8519C115.203 -9.50851 150.645 -42.8342 171.24 -14.5009C180.964 -1.11613 184.931 13.9041 199.523 19.6281C216.916 26.4568 233.725 17.1319 247.151 2.42733C276.283 -29.5068 309.657 -26.6376 345.979 -24.4283V-19.2638H345.968Z" fill="#0007A0"/>
<path d="M345.968 -2.12006C310.282 -7.44241 278.287 -21.8458 251.117 15.2529C237.988 33.171 219.408 48.1195 199.916 42.6393C183.17 37.9339 180.689 21.1634 170.879 5.68414C150.92 -25.8196 116.793 18.0647 90.4081 6.37274C76.4625 0.189635 70.8418 -8.7479 55.3796 -9.29304C36.9905 -9.95296 18.3893 -3.4686 0.0107422 -2.13442V-7.54283C18.3469 -8.86266 36.842 -15.2897 55.1887 -14.8306C70.4812 -14.4432 76.3776 -5.90741 90.2384 0.089206C116.412 11.4082 150.825 -29.9799 170.964 0.720432C180.784 15.6833 183.626 31.9659 199.863 36.8866C218.877 42.6537 237.044 29.0107 250.258 11.8242C277.799 -23.9977 310.24 -12.234 345.968 -7.54283V-2.13442V-2.12006Z" fill="#0007A0"/>
<path d="M345.968 15.0375C325.872 11.3076 304.725 0.59116 284.353 1.49496C267.353 2.25529 263.047 12.4122 253.28 27.7624C240.533 47.7894 220.691 66.5682 199.916 61.7623C181.601 57.5159 180.328 38.8949 170.709 21.7658C151.398 -12.6215 118.087 38.8949 90.8641 25.84C76.6109 19.0114 71.9659 8.9405 55.9205 7.92194C37.4147 6.75992 18.4847 13.5742 0.0107422 15.0375V9.37087C18.4529 7.96497 37.2874 1.27976 55.7614 2.29833C71.6053 3.17343 76.5897 12.9 90.7368 19.4991C117.663 32.0662 151.217 -16.9827 170.762 16.386C180.477 32.97 182.152 50.9311 199.958 55.278C220.341 60.256 239.791 42.6822 252.676 23.3152C262.666 8.30928 267.385 -1.28816 284.141 -2.45018C304.556 -3.87043 325.84 5.81308 345.968 9.37087V15.0375Z" fill="#0007A0"/>
<path d="M345.968 32.1955C325.66 28.4799 304.927 15.0951 284.47 14.9517C266.759 14.8225 263.493 27.1601 254.351 43.414C242.156 65.1051 221.221 87.2266 199.502 82.5642C179.713 78.3178 179.787 57.2579 170.635 38.4647C160.953 18.5812 156.456 22.7559 140.305 30.8183C124.694 38.6081 108.511 53.5279 91.108 44.4039C76.5367 36.7719 73.0052 25.7829 56.3023 24.4774C37.7223 23.0284 18.5271 30.3879 0.0107422 32.1955V26.285C18.5165 24.6208 37.6374 17.4765 56.1962 18.8538C72.6659 20.0732 76.6003 30.7753 91.055 38.1204C108.288 46.8714 124.408 32.6115 140.008 25.1803C155.873 17.62 160.804 13.4166 170.656 32.6259C179.999 50.8596 180.413 71.0013 199.704 75.176C221.136 79.8241 241.721 58.7786 254.129 37.6183C263.482 21.6656 267.077 10.1458 284.533 10.0453C304.927 9.93057 325.787 22.4833 345.979 26.2993V32.2098L345.968 32.1955Z" fill="#0007A0"/>
<path d="M345.968 49.3527C325.681 45.7088 305.022 32.2379 284.608 32.0514C266.908 31.8936 263.61 44.3459 254.479 60.5712C242.262 82.2767 221.529 103.695 199.884 98.9897C180.222 94.7146 179.989 74.0277 170.476 55.5358C160.412 35.9536 155.502 40.573 139.478 48.6928C124.047 56.5113 107.843 71.4742 90.6838 61.7476C76.1231 53.4987 73.387 42.2514 56.4083 40.9746C37.8071 39.5687 18.5377 47.4447 0.0107422 49.3527V43.1983C18.5483 41.3189 37.8071 33.6295 56.4189 35.0641C73.3234 36.3696 76.3352 47.5307 90.9171 55.5788C108.193 65.1045 124.387 50.0843 139.891 42.2371C156 34.0742 160.688 29.6413 170.582 49.4244C179.915 68.0885 179.968 89.048 199.725 93.3087C221.423 97.9998 242.251 76.1653 254.436 54.4168C263.546 38.1341 266.802 25.6388 284.533 25.811C304.98 26.0118 325.66 39.54 345.979 43.1983V49.3527H345.968Z" fill="#0007A0"/>
<path d="M345.968 66.5111C325.797 62.9246 305.224 49.6259 284.926 49.4968C267.332 49.3964 263.938 61.7483 254.722 77.787C242.325 99.3634 221.794 119.534 200.255 114.771C180.858 110.481 180.01 90.4689 169.999 72.479C149.616 35.8538 118.225 96.1929 89.7398 78.7626C75.317 69.9398 73.3232 58.5204 56.1855 57.344C37.6585 56.0673 18.4634 64.517 0 66.5111V60.0985C18.4952 58.1331 37.7327 49.9128 56.3021 51.247C73.3869 52.4664 75.6563 63.8284 90.1428 72.436C118.586 89.3499 150.252 29.2259 170.211 66.1668C180.031 84.3431 180.636 104.6 200.128 108.875C221.698 113.609 242.283 92.9651 254.616 71.3457C263.8 55.2352 267.162 42.8403 284.798 42.9694C305.149 43.1128 325.755 56.4833 345.968 60.0985V66.5111Z" fill="#0007A0"/>
<path d="M345.968 83.6544C325.935 80.1397 305.468 67.0418 285.318 66.9988C267.841 66.9701 264.373 79.2789 255.051 95.0738C242.399 116.55 221.942 135.372 200.52 130.508C181.357 126.162 179.809 106.766 169.267 89.2924C147.686 53.5136 117.08 114.455 88.4249 95.5473C74.0233 86.0359 73.0476 74.9895 55.7296 73.5405C37.5208 72.0199 18.1666 81.5169 0.0107422 83.6544V76.9979C18.2408 74.9178 37.648 65.679 55.9311 67.257C73.2173 68.749 74.4899 79.7524 88.9658 89.0485C117.557 107.368 148.46 46.6706 169.575 82.7793C179.904 100.454 181.166 120.079 200.425 124.411C221.889 129.232 242.368 109.879 254.913 88.3599C264.182 72.4646 267.629 60.1414 285.159 60.1988C305.372 60.2705 325.882 73.4545 345.968 76.9979V83.6544Z" fill="#0007A0"/>
<path d="M345.968 100.812C326.105 97.3836 305.754 84.5009 285.774 84.5726C268.435 84.63 264.882 96.9245 255.475 112.461C242.527 133.822 222.07 151.253 200.722 146.26C181.77 141.827 179.448 122.991 168.366 106.049C145.522 71.1305 115.68 132.703 86.8448 112.203C72.7083 102.146 72.4538 90.9566 55.0933 89.6798C37.1072 88.3456 17.9439 98.5313 0.0107422 100.841V93.9262C18.0393 91.6882 37.2874 81.7895 55.3584 83.1954C72.7083 84.5439 73.2491 95.6764 87.5023 105.518C116.274 125.373 146.413 64.0436 168.737 99.3203C179.596 116.478 181.601 135.544 200.637 139.934C222.017 144.869 242.463 126.879 255.285 105.475C264.659 89.8233 268.18 77.5288 285.573 77.5144C305.627 77.5001 326.02 90.4688 345.958 93.9262V100.841L345.968 100.812Z" fill="#0007A0"/>
<path d="M345.968 117.97C326.285 114.642 306.061 101.989 286.262 102.161C269.071 102.304 265.444 114.613 255.921 129.863C242.654 151.095 222.133 167.105 200.87 161.984C182.12 157.479 178.96 139.116 167.347 122.747C143.253 88.7761 114.057 150.908 85.1054 128.758C71.3083 118.2 71.6794 106.838 54.3402 105.733C36.6192 104.6 17.668 115.488 0 117.984V110.826C17.7846 108.401 36.8207 97.814 54.6584 99.0334C72.0082 100.224 71.8916 111.514 85.8372 121.858C114.757 143.319 144.197 81.4023 167.772 115.79C179.161 132.402 181.972 150.951 200.796 155.427C222.091 160.492 242.58 143.893 255.719 122.604C265.2 107.239 268.795 94.9448 286.039 94.8301C305.913 94.701 326.19 107.455 345.958 110.826V117.984L345.968 117.97Z" fill="#0007A0"/>
<path d="M345.968 135.127C326.466 131.899 306.38 119.476 286.76 119.748C269.718 119.992 266.017 132.315 256.388 147.264C242.792 168.352 222.207 182.942 201.019 177.692C182.481 173.101 178.44 155.183 166.33 139.417C141.058 106.55 112.297 169.041 83.3557 145.284C69.9404 134.266 70.8524 122.675 53.598 121.757C36.1421 120.824 17.4136 132.43 0.0107422 135.113V127.71C17.5303 125.099 36.3542 113.809 53.9268 114.828C71.2236 115.832 70.5342 127.323 84.1193 138.14C113.082 161.208 141.991 98.8463 166.775 132.215C178.674 148.239 182.333 166.344 200.955 170.906C222.176 176.099 242.728 160.907 256.186 139.747C265.773 124.683 269.432 112.36 286.538 112.159C306.231 111.93 326.381 124.454 345.958 127.725V135.127H345.968Z" fill="#0007A0"/>
<path d="M345.968 152.285C326.826 149.187 306.464 136.419 287.238 137.337C270.259 138.154 266.696 149.818 256.833 164.666C242.93 185.597 222.303 198.809 201.199 193.429C182.873 188.767 177.953 171.251 165.375 156.144C139.064 124.569 110.43 187.16 81.7013 161.897C67.936 149.789 70.5236 139.933 52.9087 137.853C36.4072 135.916 16.544 149.531 0.0107422 152.285V144.624C17.2863 141.827 35.8876 129.834 53.2056 130.666C70.4176 131.484 69.2404 143.219 82.4225 154.466C111.268 179.083 139.912 116.492 165.789 148.67C178.165 164.063 182.693 181.766 201.114 186.4C222.25 191.722 242.866 177.893 256.631 156.905C266.324 142.128 270.057 129.791 287.025 129.49C306.539 129.145 326.561 141.454 345.968 144.624V152.285Z" fill="#0007A0"/>
<path d="M345.968 169.429C326.975 166.416 306.74 153.878 287.662 154.867C270.821 155.743 267.162 167.42 257.204 181.996C243.025 202.726 222.409 214.647 201.422 209.167C183.329 204.447 177.518 187.318 164.537 172.915C137.41 142.846 108.532 205.207 80.2272 178.596C66.8013 165.971 69.9191 156.015 52.3466 154.007C36.1315 152.156 16.2789 166.545 0.0107422 169.443V161.538C16.3955 158.698 36.2375 144.667 52.5799 146.547C70.1631 148.584 67.2891 158.483 80.8742 170.878C109.402 196.901 138.12 134.381 164.898 165.182C177.698 179.901 183.107 197.217 201.305 201.908C222.345 207.345 242.983 194.835 257.034 174.019C266.95 159.329 270.566 147.651 287.471 146.805C306.613 145.844 326.911 158.497 345.968 161.538V169.443V169.429Z" fill="#0007A0"/>
<path d="M345.968 186.587C327.102 183.631 306.973 171.323 288.022 172.341C271.298 173.245 267.544 184.923 257.501 199.24C243.11 219.769 222.589 230.471 201.74 224.905C183.913 220.156 177.242 203.415 163.922 189.772C136.243 161.41 106.74 223.183 79.0818 195.467C66.0058 182.355 69.5478 172.241 51.9859 170.275C35.9935 168.468 16.0772 183.588 0 186.587V178.424C16.1621 175.469 36.0359 160.692 52.1132 162.514C69.6751 164.494 66.3239 174.536 79.5696 187.419C107.556 214.647 136.72 152.558 164.166 181.752C177.337 195.754 183.605 212.682 201.559 217.431C222.483 222.954 243.057 211.692 257.352 191.063C267.353 176.631 271.065 164.939 287.842 164.049C306.857 163.045 327.028 175.454 345.947 178.438V186.601L345.968 186.587Z" fill="#0007A0"/>
<path d="M345.968 203.744C327.186 200.818 307.153 188.695 288.277 189.743C271.637 190.661 267.777 202.281 257.67 216.398C243.152 236.697 222.854 246.309 202.174 240.714C184.644 235.965 177.178 219.64 163.604 206.786C135.638 180.303 105.202 241.187 78.3816 212.61C65.6132 198.996 69.5264 188.724 51.9327 186.716C36.0887 184.908 15.9922 200.703 0.0209961 203.73V195.323C16.0346 192.311 36.0251 176.831 51.9327 178.625C69.4946 180.604 65.7616 190.804 78.6786 204.16C105.934 232.35 135.872 170.993 163.731 198.422C177.189 211.678 184.284 228.204 201.962 232.953C222.727 238.533 243.152 228.405 257.628 207.991C267.703 193.774 271.51 182.125 288.192 181.207C307.1 180.16 327.176 192.382 346 195.309V203.716L345.968 203.744Z" fill="#0007A0"/>
<path d="M345.968 220.902C327.112 217.933 306.931 205.667 287.98 206.772C271.287 207.747 267.745 219.324 257.724 233.541C243.322 253.97 222.982 262.649 202.482 257.097C185.153 252.392 177.168 236.482 163.477 224.087C135.416 198.695 105 258.202 78.3712 229.869C65.6452 216.34 69.3251 206.097 51.8374 204.075C36.0147 202.238 15.9288 217.861 0 220.917V212.252C15.9606 209.21 36.142 193.243 51.9647 195.051C69.569 197.074 65.5816 207.417 78.244 221.175C104.725 249.953 135.532 189.614 163.551 215.279C177.21 227.788 185.015 243.899 202.397 248.633C222.982 254.242 243.174 245.104 257.702 224.876C267.809 210.788 271.669 199.226 288.287 198.293C307.154 197.231 327.187 209.325 345.958 212.252V220.917L345.968 220.902Z" fill="#0007A0"/>
<path d="M345.968 238.06C326.869 234.99 306.316 222.366 287.121 223.571C270.206 224.633 267.236 236.195 257.374 250.742C243.237 271.587 222.653 279.563 202.291 274.14C185.09 269.564 176.754 254.156 163.01 242.02C134.992 217.273 105.457 274.944 78.6789 247.572C65.868 234.474 68.9011 224.374 51.6467 222.237C35.8346 220.286 15.8865 235.076 0.0107422 238.046V229.137C15.9077 226.11 35.9194 210.86 51.7421 212.74C69.1132 214.791 65.7514 224.962 78.5198 238.29C105.245 266.164 135.257 207.518 163.307 232.623C177.03 244.903 185.175 260.583 202.45 265.232C222.876 270.74 243.343 262.42 257.618 241.79C267.555 227.43 270.81 215.853 287.609 214.834C306.666 213.687 327.017 226.11 345.968 229.137V238.046V238.06Z" fill="#0007A0"/>
<path d="M345.968 255.203C326.296 252.004 305.775 239.681 285.975 240.37C268.827 240.972 266.176 253.238 256.599 267.971C242.76 289.275 221.995 296.706 201.729 291.527C184.676 287.166 175.98 272.347 162.204 260.526C134.345 236.582 105.796 292.202 79.0287 265.848C66.1542 253.181 68.5085 243.138 51.4981 240.771C35.6859 238.576 15.8439 252.406 0 255.189V246.036C15.8545 243.138 35.7496 228.778 51.5617 230.83C68.6994 233.053 65.9845 243.124 78.8272 256.021C105.616 282.92 134.705 226.196 162.671 250.57C176.425 262.563 184.931 277.712 202.068 282.188C222.377 287.496 243.057 279.792 257.055 258.747C266.706 244.229 269.622 231.963 286.612 231.375C306.199 230.701 326.497 242.866 345.968 246.022V255.175V255.203Z" fill="#0007A0"/>
<path d="M345.968 272.361C325.872 269.061 304.884 256.451 284.639 257.183C267.151 257.814 264.956 270.051 255.528 285.258C242.018 307.035 221.104 314.079 200.912 309.187C184.029 305.098 174.962 290.939 161.175 279.448C133.57 256.422 106.061 309.818 79.4317 284.541C66.5254 272.275 68.1692 262.261 51.4026 259.593C35.5905 257.068 15.8333 269.836 0 272.361V262.95C15.8333 260.267 35.6329 246.911 51.445 249.249C68.3495 251.746 66.3027 261.773 79.1984 274.254C105.913 300.12 134.005 245.491 161.759 269.033C175.535 280.71 184.4 295.243 201.379 299.489C221.613 304.539 242.442 297.294 256.133 275.775C265.646 260.827 268.085 248.575 285.382 247.958C305.372 247.255 326.094 259.693 345.958 262.95V272.361H345.968Z" fill="#0007A0"/>
<path d="M345.968 289.519C325.405 286.104 303.909 273.236 283.197 273.982C265.328 274.627 263.567 286.836 254.288 302.545C241.116 324.824 220.097 331.552 199.937 326.99C183.234 323.203 173.795 309.746 159.998 298.614C132.712 276.578 106.252 327.679 79.8667 303.477C66.9391 291.627 67.8406 281.585 51.3391 278.558C35.527 275.66 15.8441 287.295 0.0107422 289.519V279.864C15.8441 277.468 35.5588 265.188 51.3815 267.871C68.0315 270.697 66.7058 280.724 79.6334 292.804C106.167 317.608 133.21 265.216 160.688 287.811C174.474 299.145 183.711 313.017 200.51 316.962C220.691 321.711 241.647 314.825 255.009 292.818C264.373 277.396 266.377 265.173 284.024 264.528C304.471 263.796 325.67 276.521 345.968 279.864V289.519Z" fill="#0007A0"/>
<path d="M345.968 306.677C324.917 303.162 302.912 290.007 281.702 290.796C263.44 291.47 262.093 303.636 252.962 319.861C225.94 367.92 187.593 340.347 158.768 317.867C131.831 296.864 106.411 345.612 80.3015 322.515C67.3845 311.081 67.4906 300.982 51.2755 297.596C35.4528 294.296 15.8759 304.783 0.0107422 306.691V296.778C15.8547 294.684 35.4952 283.537 51.3179 286.607C67.7027 289.792 67.13 299.848 80.0576 311.526C106.326 335.254 132.34 285.144 159.489 306.749C173.276 317.723 182.884 330.893 199.502 334.537C219.641 338.97 240.713 332.356 253.736 309.862C262.952 293.938 264.543 281.744 282.571 281.084C303.506 280.309 325.204 293.321 345.979 296.764V306.677H345.968Z" fill="#0007A0"/>
<path d="M345.968 323.82C324.451 320.205 301.936 306.777 280.238 307.58C261.584 308.283 260.651 320.391 251.7 337.133C225.983 385.235 186.182 358.523 157.58 337.018C130.994 317.034 106.549 363.443 80.7363 341.437C67.8406 330.433 67.1194 320.248 51.2119 316.546C35.3679 312.859 15.9183 322.227 0.0107422 323.834V313.677C15.8865 311.898 35.421 301.87 51.2543 305.328C67.3527 308.843 67.5754 318.985 80.4818 330.247C106.464 352.899 131.471 305.113 158.27 325.699C187.009 347.777 225.951 374.992 252.432 326.918C261.489 310.478 262.666 298.341 281.087 297.653C302.498 296.849 324.716 310.119 345.958 313.677V323.834L345.968 323.82Z" fill="#0007A0"/>
<path d="M345.968 340.978C324.016 337.263 301.035 323.548 278.891 324.394C259.866 325.126 259.368 337.205 250.608 354.42C226.121 402.551 184.888 376.484 156.52 355.97C130.251 336.976 106.687 381.118 81.1393 360.159C68.2754 349.614 66.7058 339.343 51.1164 335.369C35.2513 331.323 15.9607 339.63 0.0107422 340.978V330.577C15.9289 329.085 35.3255 320.133 51.18 323.978C66.9709 327.809 68.0208 338.023 80.906 348.84C106.613 370.43 130.686 324.925 157.146 344.522C185.663 365.639 226.025 392.064 251.244 343.948C260.12 327.02 260.884 314.926 279.687 314.209C301.565 313.377 324.27 326.919 345.968 330.577V340.978Z" fill="#0007A0"/>
<path d="M345.968 358.135C323.645 354.319 300.25 340.318 277.725 341.207C258.349 341.968 258.328 354.061 249.802 371.678C226.481 419.809 183.785 394.072 155.693 374.533C129.679 356.443 106.867 398.419 81.4999 378.492C68.689 368.421 66.2392 358.107 50.9786 353.946C35.1028 349.614 15.9925 356.973 0.0107422 358.135V347.476C15.9713 346.214 35.1983 338.281 51.074 342.441C66.5361 346.501 68.445 356.787 81.2877 367.159C106.761 387.731 130.018 344.421 156.181 363.056C184.454 383.198 226.227 409.092 250.268 360.962C258.943 343.589 259.272 331.509 278.435 330.763C300.727 329.903 323.878 343.718 345.979 347.476V358.135H345.968Z" fill="#0007A0"/>
<path d="M345.968 375.294C323.369 371.363 299.645 357.089 276.823 358.007C257.151 358.796 257.681 370.947 249.388 388.879C227.139 437.01 182.905 411.087 155.184 392.552C129.339 375.265 107.09 415.233 81.8074 396.282C69.0495 386.727 65.7196 376.413 50.7877 372.181C34.8907 367.676 16.0243 374.232 0.0107422 375.294V364.391C16.0031 363.286 35.0286 356.228 50.9149 360.647C66.0589 364.85 68.8268 375.165 81.6165 385.049C106.941 404.617 129.53 363.401 155.459 381.176C183.425 400.342 226.672 426.093 249.59 377.948C258.042 360.202 257.872 348.094 277.354 347.319C299.995 346.43 323.517 360.517 345.958 364.376V375.279L345.968 375.294Z" fill="#0007A0"/>
<path d="M345.968 392.451C323.284 388.577 299.518 374.561 276.622 375.48C257.024 376.269 257.596 387.975 249.25 405.764C227.34 452.474 182.651 427.254 155.099 409.853C129.36 393.599 107.259 431.013 82.0195 413.238C69.3359 404.315 65.1363 394.258 50.5756 390.141C34.6468 385.637 16.0668 391.461 0.0107422 392.451V381.29C16.0243 380.228 34.8059 373.916 50.7028 378.449C65.5287 382.681 69.1556 392.967 81.9028 402.335C107.196 420.956 129.297 381.648 155.109 398.691C182.683 416.882 227.478 443.006 249.378 394.89C257.575 376.871 256.833 364.691 276.601 363.888C299.486 362.956 323.305 377.33 345.979 381.29V392.451H345.968Z" fill="#0007A0"/>
<path d="M345.968 409.595C323.305 406.152 299.847 393.656 277.025 394.46C258.264 395.12 257.342 405.133 248.19 421.846C225.198 463.837 183.17 442.146 155.385 426.265C129.901 411.703 107.45 445.173 82.4754 429.148C69.919 421.1 64.7968 411.79 50.6497 408.045C34.5406 403.784 16.2363 408.849 0 409.58V398.175C16.0984 397.286 34.5724 391.734 50.5542 396.181C64.9771 400.184 69.4736 410.011 82.1042 418.647C107.249 435.833 129.487 399.782 155.141 415.433C182.81 432.319 226.672 456.305 248.964 411.158C257.575 393.714 257.49 382.581 276.802 381.835C299.656 380.946 323.295 394.46 345.947 398.175V409.58L345.968 409.595Z" fill="#0007A0"/>
<path d="M345.968 426.752C323.21 423.725 299.889 412.708 277.004 413.396C259.113 413.941 256.504 422.348 246.546 437.813C222.653 474.926 183.732 456.305 155.979 441.973C130.76 428.947 108.203 458.572 83.3875 444.484C70.8842 437.383 64.8393 428.861 51.0316 425.605C34.6468 421.731 16.5016 426.164 0.0107422 426.752V415.103C16.3213 414.429 34.562 409.58 50.7452 413.726C64.7757 417.327 70.1949 426.365 82.7194 434.14C107.62 449.577 130.145 417.341 155.544 431.386C183.351 446.765 224.424 467.423 247.713 426.996C257.119 410.656 258.572 401.173 277.057 400.557C299.889 399.782 323.284 411.804 345.968 415.103V426.752Z" fill="#0007A0"/>
<path d="M345.968 443.91C310.006 439.793 272.804 416.911 244.563 453.68C219.906 485.786 184.326 469.934 156.795 457.137C131.905 445.574 109.232 471.598 84.628 459.346C72.1883 453.149 65.1253 445.589 51.6357 442.849C34.901 439.463 16.8406 443.365 0.0209961 443.91V432.003C16.6073 431.429 34.7207 427.168 51.2115 430.898C64.9132 434.012 71.2762 442.232 83.7478 449.06C108.5 462.603 131.099 434.083 156.223 446.65C183.923 460.509 221.836 478.269 245.984 442.676C256.186 427.642 259.335 419.68 276.961 419.178C299.878 418.532 323.188 429.091 345.989 431.989V443.896L345.968 443.91Z" fill="#0007A0"/>
<path d="M345.968 461.068C322.881 458.83 299.55 450.682 276.399 451.141C258.975 451.485 255.348 460.035 242.484 469.446C210.955 492.529 189.926 481.526 157.739 471.928C133.411 464.669 109.783 483.993 86.0705 473.894C73.705 468.629 65.5922 461.8 52.3571 459.906C35.1239 457.424 17.265 460.509 0 461.068V448.917C16.9256 448.372 34.9754 444.613 51.8268 447.841C65.2316 450.409 72.5915 457.683 85.0312 463.607C109.571 475.314 132.266 450.323 157.061 461.47C185.906 474.439 217.276 487.278 243.958 458.285C255.592 445.646 259.261 438.201 276.643 437.799C299.698 437.268 323.008 446.407 345.979 448.917V461.068H345.968Z" fill="#0007A0"/>
<path d="M345.968 478.225C322.764 476.375 299.423 469.618 276.166 469.962C259.951 470.206 253.651 477.479 240.575 485.169C209.906 503.201 189.586 494.537 158.768 486.56C134.663 480.32 111.321 496.631 87.6296 488.31C57.3734 477.68 31.6244 477.149 0.0107422 478.211V465.802C32.0167 464.754 56.3341 465.658 86.5054 477.881C110.218 487.493 133.751 469.001 158.026 475.973C189.852 485.126 210.595 495.455 241.933 473.792C254.86 464.855 259.24 456.649 276.314 456.333C299.508 455.917 322.839 463.664 345.968 465.802V478.211V478.225Z" fill="#0007A0"/>
<path d="M345.968 495.369C322.754 493.891 299.465 488.512 276.219 488.755C261.064 488.913 252.283 494.881 239.069 500.863C209.609 514.176 189.077 507.563 159.776 501.222C135.914 496.058 112.774 509.285 89.1673 502.757C58.7626 494.35 31.2532 494.293 0.0107422 495.369V482.716C31.5183 481.654 57.7552 482.042 88.0432 492.098C111.724 499.945 134.992 484.437 159.044 490.405C189.47 497.951 209.757 506.057 240.13 489.286C253.248 482.056 260.237 475.112 276.145 474.897C299.412 474.582 322.754 480.966 345.968 482.73V495.383V495.369Z" fill="#0007A0"/>
<path d="M345.968 512.527C308.628 510.72 274.565 504.795 238.221 516.558C210.15 525.639 188.505 520.805 160.698 516.099C137.102 512.111 114.036 522.139 90.5672 517.376C59.9822 511.179 31.0305 511.48 0.0107422 512.513V499.616C31.1896 498.54 59.0808 498.497 89.5279 506.358C113.103 512.441 136.222 500.003 160.02 504.881C188.939 510.806 209.672 516.96 238.794 504.752C274.978 489.574 308.108 497.349 345.979 499.63V512.527H345.968Z" fill="#0007A0"/>
<path d="M345.968 529.685C309.391 528.48 274.469 524.922 238.285 532.296C211.465 537.776 188.07 534.505 161.451 531.392C138.099 528.666 115.022 535.423 91.7231 532.353C60.9685 528.308 30.9456 528.796 0.0107422 529.671V516.515C31.0093 515.497 60.2367 515.138 90.8641 520.834C114.301 525.195 137.357 515.913 160.889 519.614C188.377 523.947 210.393 528.394 238.147 520.217C274.49 509.5 308.798 514.851 345.968 516.515V529.671V529.685Z" fill="#0007A0"/>
<path d="M345.968 546.843C284.448 545.781 223.332 550.96 161.96 547.302C108.32 544.102 53.7146 545.867 0.0107422 546.843V533.443C30.935 532.611 61.1382 532.124 91.9246 535.71C115.203 538.421 138.269 532.396 161.589 534.835C188.027 537.604 211.836 540.53 238.454 535.768C274.543 529.297 309.582 532.382 345.968 533.458V546.857V546.843Z" fill="#0007A0"/>
</g>
<defs>
<clipPath id="clip0_2025_4">
<rect width="346" height="534" fill="white"/>
</clipPath>
</defs>
</svg>
