<svg width="346" height="534" viewBox="0 0 346 534" fill="none" xmlns="http://www.w3.org/2000/svg">
<g clip-path="url(#clip0_2025_49)">
<path d="M346 0H0V534H346V0Z" fill="white"/>
<path d="M345.979 -20.9702C318.735 -33.407 303.23 -61.5126 278.87 -79.936C258.488 -95.3456 249.738 -90.6273 235.178 -69.7083C217.732 -44.6438 202.737 -14.1109 173.159 -21.3248C142.627 -28.7705 118.278 -58.8125 89.7825 -25.8658C62.6124 5.53986 32.5577 -8.3152 0.0214844 -20.9838V-32.3297C32.5047 -21.8293 63.0154 -5.71055 89.7932 -37.3617C118.321 -71.0993 142.468 -39.9118 173.17 -32.6706C202.875 -25.6613 217.361 -56.3988 235.082 -81.1497C249.728 -101.619 258.572 -104.673 278.478 -89.7136C302.753 -71.4675 318.767 -44.2756 345.979 -32.3297V-20.9838V-20.9702Z" fill="#0007A0"/>
<path d="M345.979 -4.33334C318.671 -17.4793 303.919 -46.9485 279.443 -65.6037C258.36 -81.668 249.738 -74.4404 235.305 -52.9215C218.22 -27.4478 202.535 2.85328 173.127 -4.6879C142.85 -12.4336 118.193 -40.7983 89.761 -9.01078C61.9864 22.0403 32.6422 11.5127 0.0317383 -4.34698V-15.6928C32.5892 -2.01507 62.4212 10.7899 89.7822 -20.5067C118.257 -53.0851 142.712 -23.5749 173.159 -16.0338C202.683 -8.72441 217.902 -39.1755 235.23 -64.3764C249.749 -85.4999 258.455 -91.0092 279.072 -75.395C303.463 -56.9034 318.734 -28.3615 346 -15.7065V-4.36062L345.979 -4.33334Z" fill="#0007A0"/>
<path d="M345.979 12.3174C318.629 -1.55125 304.63 -32.3569 280.005 -51.2576C258.254 -67.9491 249.717 -58.1578 235.432 -36.1207C218.676 -10.2516 202.376 19.8313 173.096 11.9765C143.062 3.91713 118.109 -22.7702 89.7295 7.87181C61.2868 38.582 32.7274 31.3817 0.0214844 12.3038V0.957932C32.6638 17.8404 61.764 27.318 89.7507 -3.62405C118.172 -35.0434 142.924 -7.22418 173.117 0.63065C202.482 8.26729 218.369 -21.9656 235.347 -47.562C249.728 -69.2582 258.328 -77.2904 279.623 -61.0352C304.153 -42.2982 318.661 -12.4198 345.979 0.957932V12.3038V12.3174Z" fill="#0007A0"/>
<path d="M345.979 28.9678C319.286 15.0991 306.168 -15.0383 282.762 -34.9345C258.116 -55.8671 249.982 -40.4438 233.969 -16.4429C217.054 8.92164 202.058 35.7181 173 28.9542C147.527 23.0222 123.846 -2.09694 97.6303 17.0628C82.0727 28.436 75.6778 44.1729 56.3449 47.3776C35.665 50.8004 17.7743 41.1319 0.0214844 28.9542V17.6083C32.7592 37.7091 61.0641 43.8593 89.7189 13.2445C118.077 -17.0429 143.137 9.11257 173.085 17.2674C202.323 25.2313 218.814 -4.79704 235.475 -30.7753C249.707 -52.9761 258.222 -63.5992 280.185 -46.7031C304.853 -27.7342 318.618 3.49417 345.979 17.5947V28.9406V28.9678Z" fill="#0007A0"/>
<path d="M345.979 45.6048C319.212 31.027 306.836 -0.310506 283.324 -20.5612C258.784 -41.6984 249.102 -24.8978 234.138 0.412242C218.549 26.7723 200.987 52.3823 173 45.6184C147.484 39.4546 123.867 15.6855 97.5769 34.3135C82.189 45.2093 74.8715 61.1235 56.1642 65.051C34.9117 69.5102 17.6467 59.4326 0.0317383 45.6184V34.2726C17.7422 46.9685 35.442 56.7597 56.3021 53.0096C75.4336 49.5731 82.1254 33.7816 97.6299 22.5585C123.867 3.56236 147.527 28.2587 173.021 34.2726C202.037 41.1046 217.191 14.4173 234.043 -11.0564C249.993 -35.18 258.116 -51.5305 282.964 -30.3389C306.411 -10.3336 319.286 20.1857 346 34.2862V45.6321L345.979 45.6048Z" fill="#0007A0"/>
<path d="M345.978 62.2555C319.148 46.9549 307.514 14.431 283.875 -6.18788C258.731 -28.1296 249.059 -8.32887 234.297 17.2539C218.898 43.9412 200.88 69.2512 172.989 62.2555C147.42 55.8462 123.888 33.4681 97.5024 51.5369C82.2523 61.9828 74.0759 78.1015 55.9624 82.7108C34.1267 88.261 17.4874 77.6788 0.0102539 62.2555V50.9096C17.5828 65.242 34.6569 75.4696 56.0897 70.6694C74.6061 66.5238 82.1993 50.5414 97.5448 39.7956C123.867 21.3449 147.463 44.6776 172.989 50.9096C200.944 57.7417 218.654 32.2408 234.18 5.77164C249.08 -19.6338 258.752 -37.3754 283.483 -15.9791C307.037 4.39432 319.18 36.1137 345.968 50.9096V62.2555H345.978Z" fill="#0007A0"/>
<path d="M345.978 78.9061C319.763 63.6737 308.818 31.9135 286.463 10.2854C262.167 -13.2381 250.607 3.54882 236.195 30.8635C221.613 58.4917 201.05 87.9883 172.978 78.6334C147.028 69.9876 121.099 50.2823 94.7451 70.7376C80.4601 81.8244 71.4882 96.2931 54.1384 100.848C32.3026 106.575 16.7344 95.4749 0.0102539 78.9061V67.5602C17.4237 83.4881 33.8721 94.2476 55.8988 88.3428C73.8319 83.529 82.263 67.342 97.4812 57.0326C123.898 39.141 147.399 61.0691 172.989 67.5602C200.849 74.6378 219.015 49.4096 234.35 22.6132C249.048 -3.0514 258.72 -23.7931 284.045 -1.60589C307.715 19.1358 319.116 52.0279 345.968 67.5602V78.9061H345.978Z" fill="#0007A0"/>
<path d="M345.978 95.5431C319.943 79.888 309.041 48.1141 286.643 26.5815C262.04 2.93518 250.469 21.1131 236.45 48.6187C222.175 76.6151 200.806 104.953 172.968 94.8749C146.901 85.4382 121.29 66.5102 94.7451 87.361C80.4919 98.5568 71.4246 113.203 54.1172 117.962C32.0587 124.03 16.639 112.671 0.0102539 95.5567V84.2109C16.6602 101.23 32.0587 112.576 54.0748 106.493C71.2655 101.748 80.4389 87.1291 94.7133 76.1924C121.088 55.9826 146.996 75.1696 172.947 83.9381C200.997 93.4157 221.719 63.9465 236.227 36.2091C250.565 8.79905 262.135 -8.95614 286.633 14.8811C309.009 36.6591 319.72 68.7467 345.968 84.2109V95.5567L345.978 95.5431Z" fill="#0007A0"/>
<path d="M345.978 112.193C320.495 97.0838 309.2 66.6055 286.94 46.2456C262.177 23.6085 251.307 42.7546 237.553 69.5101C222.886 98.0657 200.244 120.907 173.01 109.371C146.89 98.3112 121.205 80.8832 94.7981 103.33C80.6298 115.371 71.9761 129.894 54.255 134.49C32.3238 140.176 16.6814 129.021 0.0102539 112.193V100.848C16.6496 117.88 32.1435 129.171 54.1596 123.226C71.5837 118.521 80.5237 103.902 94.7557 92.4746C121.311 71.1329 146.869 89.7881 172.968 99.6885C200.647 110.175 222.387 83.1333 236.683 54.9869C250.586 27.6177 262.018 9.27612 286.654 32.6497C309.031 53.8823 320.081 85.2879 345.957 100.861V112.207L345.978 112.193Z" fill="#0007A0"/>
<path d="M345.979 128.844C321.206 114.975 309.71 86.1333 287.757 67.5462C262.74 46.3682 253.185 67.5053 239.451 92.7471C223.523 122.025 199.343 135.69 173.096 122.462C147.082 109.343 120.654 95.079 94.873 119.148C80.8531 132.239 72.6024 146.613 54.4041 151.031C32.5896 156.322 16.7244 145.385 0.0214844 128.858V117.512C16.6926 134.244 32.4093 145.317 54.3087 139.767C72.1782 135.226 80.694 120.757 94.8306 108.402C121.089 85.4378 146.944 102.007 173.043 113.693C200.011 125.762 223.109 105.498 238.094 76.7238C251.806 50.3774 262.327 30.6858 287.164 52.9002C309.349 72.7555 320.718 102.743 345.99 117.512V128.858L345.979 128.844Z" fill="#0007A0"/>
<path d="M345.979 145.481C322.043 133.276 310.441 106.33 288.913 89.9244C263.62 70.6419 255.783 94.2746 241.88 117.525C224.01 147.404 198.049 149.313 173.191 134.558C147.293 119.189 119.816 109.221 94.9362 134.817C81.1073 149.04 73.2595 163.291 54.5523 167.532C32.8649 172.455 16.7665 161.709 0.0317383 145.481V134.135C16.7453 150.568 32.6847 161.45 54.4568 156.268C72.8141 151.904 80.9376 137.572 94.8938 124.126C120.41 99.552 147.145 112.548 173.127 126.376C198.982 140.135 223.692 129.99 240.183 100.493C253.948 75.8512 262.994 53.9504 288.096 74.5693C309.932 92.5018 321.46 120.757 345.979 134.135V145.481Z" fill="#0007A0"/>
<path d="M345.979 162.132C322.563 151.345 310.367 124.453 288.426 111.566C262.178 96.1429 257.438 126.171 242.601 145.986C221.783 173.778 195.663 159.8 173 145.863C147.941 130.453 121.481 123.417 97.7788 147.431C83.0802 162.323 76.1869 178.769 56.3661 183.705C34.2227 189.214 17.3183 178.441 0.0214844 162.159V150.813C17.3077 167.327 34.0318 178.182 56.26 172.427C75.646 167.409 82.9105 151.004 97.7257 136.999C122.202 113.857 147.835 124.194 173 138.213C196.681 151.399 221.741 156.881 240.809 128.68C255.242 107.339 261.245 78.6059 287.46 95.7474C309.869 110.393 321.874 138.676 345.979 150.813V162.159V162.132Z" fill="#0007A0"/>
<path d="M345.979 178.782C323.645 169.918 311.025 145.086 289.836 134.79C262.496 121.494 262.104 155.422 245.221 171.377C220.447 194.778 195.536 174.923 173 157.113C148.959 138.117 119.668 138.54 97.8636 162.745C83.3347 178.878 76.9929 195.474 56.5145 200.247C34.5091 205.388 17.3501 194.751 0.0214844 178.782V167.436C17.3289 183.623 34.3182 194.342 56.4191 188.955C76.452 184.073 83.165 167.586 97.8106 152.286C121.163 127.903 147.962 133.372 173 149.409C195.197 163.618 221.815 181.564 243.45 154.086C258.488 134.981 262.645 104.393 288.892 118.971C310.601 131.04 322.913 157.263 345.99 167.423V178.769L345.979 178.782Z" fill="#0007A0"/>
<path d="M345.979 195.419C324.727 188.205 311.491 165.364 291.087 157.495C263.885 147.022 265.052 182.014 247.617 196.101C220.702 217.852 194.507 187.237 173 168.827C148.853 148.167 118.893 152.954 97.9484 178.1C83.5786 195.351 77.7564 212.179 56.6736 216.775C34.7954 221.547 17.3819 211.033 0.0214844 195.406V184.06C17.3607 199.906 34.6045 210.515 56.5676 205.497C77.2368 200.778 83.4089 184.114 97.8954 167.6C119.402 143.081 148.948 141.199 173.011 160.741C195.186 178.755 220.521 202.21 246.037 179.341C263.111 164.027 262.973 129.703 290.281 142.085C311.226 151.577 324.005 175.768 346 184.06V195.406L345.979 195.419Z" fill="#0007A0"/>
<path d="M345.979 212.07C325.755 206.029 311.672 184.973 292.01 179.178C265.009 171.228 267.342 206.738 249.537 219.502C221.104 239.875 193.775 200.519 172.989 181.578C148.64 159.377 118.395 167.586 98.0118 193.647C83.7798 211.852 78.4561 228.952 56.8006 233.357C35.0603 237.775 17.3923 227.357 0 212.084V200.738C17.3711 216.256 34.8694 226.743 56.6945 222.079C77.9683 217.538 83.6207 200.629 97.9481 183.051C118.681 157.604 148.778 151.604 172.979 172.768C194.231 191.356 220.808 225.011 248.275 203.751C265.847 190.155 264.267 154.931 291.405 164.559C311.565 171.705 325.044 193.96 345.958 200.738V212.084L345.979 212.07Z" fill="#0007A0"/>
<path d="M345.979 228.72C326.614 223.198 311.513 203.56 292.434 199.265C266.77 193.483 267.162 226.375 250.746 240.83C224.392 264.026 190.488 212.684 173 195.842C148.428 172.182 118.3 182.369 98.1075 209.383C83.9604 228.311 79.1033 245.739 56.9706 249.912C35.3681 253.99 17.4456 243.666 0.0214844 228.734V217.388C17.4244 232.566 35.1666 242.944 56.8645 238.634C78.6791 234.298 83.8437 217.102 98.0439 198.638C118.321 172.291 148.577 163.277 172.99 185.942C191.039 202.688 223.862 249.803 250.004 226.566C266.431 211.961 266.399 178.837 292.201 185.792C311.651 191.042 326.042 211.593 345.969 217.388V228.734L345.979 228.72Z" fill="#0007A0"/>
<path d="M345.978 245.357C326.995 239.766 311.088 220.852 292.19 217.143C266.621 212.138 267.31 244.294 251.106 258.94C225.155 282.395 189.915 228.68 172.989 211.974C148.237 187.537 118.543 197.751 98.1917 225.516C84.087 244.757 79.495 262.472 57.1502 266.549C35.5902 270.477 17.498 260.072 0.0102539 245.371V234.025C17.4449 248.849 35.4417 259.144 57.0017 255.176C79.2617 251.085 83.981 233.562 98.1175 214.443C118.352 187.087 148.354 176.669 172.989 200.779C190.233 217.661 224.636 270.436 250.936 247.062C267.278 232.539 266.812 199.865 292.423 205.238C311.374 209.206 326.826 228.502 345.968 234.025V245.371L345.978 245.357Z" fill="#0007A0"/>
<path d="M345.979 262.008C326.89 256.485 310.739 237.789 291.734 234.161C266.24 229.293 267.512 260.74 251.361 275.249C225.962 298.05 189.756 244.744 173 228.638C148.068 204.679 118.766 214.183 98.3196 242.016C84.2679 261.135 79.6017 279.149 57.416 283.39C35.7393 287.522 17.594 276.749 0.0214844 262.021V250.676C17.5304 265.39 35.6438 275.904 57.2357 271.922C79.5275 267.804 84.1407 249.98 98.2348 230.779C118.618 203.001 148.185 193.005 173 217.293C189.873 233.807 225.421 287.4 251.191 264.149C267.375 249.557 266.494 217.62 292.042 222.584C310.972 226.266 326.954 245.112 345.969 250.676V262.021L345.979 262.008Z" fill="#0007A0"/>
<path d="M345.979 278.659C326.773 273.204 310.389 254.74 291.268 251.167C264.649 246.19 269.23 279.805 251.605 291.546C223.618 310.174 192.524 263.536 173 245.29C147.888 221.821 118.978 230.603 98.4363 258.504C84.4482 277.5 79.6972 295.814 57.6705 300.219C35.8771 304.569 17.6789 293.414 0.0214844 278.673V267.327C17.6259 282.055 35.7817 292.951 57.5008 288.75C79.6335 284.468 84.3316 266.359 98.362 247.267C118.84 219.421 148.015 210.134 173 233.944C189.703 249.858 226.216 303.042 251.446 280.446C267.576 265.99 266.113 234.748 291.586 239.589C310.633 243.203 326.858 261.818 345.979 267.327V278.673V278.659Z" fill="#0007A0"/>
<path d="M345.979 295.296C326.667 289.91 310.039 271.663 290.801 268.159C264.278 263.318 269.379 296.251 251.859 307.815C224.435 325.924 192.344 279.464 173 261.913C147.707 238.949 119.201 246.981 98.5635 274.964C84.6497 293.837 79.7926 312.451 57.9356 317.02C36.0362 321.602 17.7637 310.051 0.0214844 295.296V283.95C17.7001 298.692 35.9302 309.983 57.7553 305.551C79.729 301.092 84.5118 282.696 98.4787 263.727C119.042 235.798 147.835 227.248 173 250.567C192.471 268.595 223.883 315.179 251.69 296.714C269.273 285.041 264.532 251.644 291.119 256.567C310.283 260.113 326.742 278.509 345.979 283.95V295.296Z" fill="#0007A0"/>
<path d="M345.979 311.946C326.561 306.614 309.699 288.614 290.334 285.164C263.907 280.459 269.527 312.696 252.103 324.11C225.251 341.702 192.132 295.418 173 278.563C147.516 256.117 119.424 263.372 98.6802 291.464C84.83 310.214 79.8774 329.115 58.1901 333.861C36.1847 338.661 17.8273 326.715 0.0214844 311.96V300.614C17.7849 315.369 36.0786 327.042 58.0205 322.392C79.8244 317.769 84.7133 299.073 98.6059 280.227C119.275 252.203 147.654 244.417 173.011 267.217C192.28 284.55 224.7 330.956 251.944 313.01C269.443 301.487 264.172 268.786 290.663 273.572C309.943 277.063 326.646 295.228 345.99 300.6V311.946H345.979Z" fill="#0007A0"/>
<path d="M345.979 328.597C326.444 323.333 309.349 305.564 289.878 302.169C263.556 297.587 269.665 329.129 252.357 340.407C226.089 357.507 191.93 311.36 173.011 295.214C147.336 273.3 119.667 279.763 98.8177 307.951C85.0311 326.579 79.9831 345.779 58.4655 350.689C36.3646 355.721 17.9118 343.379 0.0317383 328.597V317.251C17.8694 332.02 36.248 344.089 58.2852 339.22C79.9195 334.434 84.9039 315.437 98.7329 296.714C119.508 268.595 147.474 261.599 173.011 283.868C192.078 300.505 225.516 346.748 252.188 329.306C269.58 317.933 263.8 285.914 290.196 290.577C309.593 294 326.529 311.933 345.989 317.251V328.597H345.979Z" fill="#0007A0"/>
<path d="M345.979 345.247C326.328 340.052 309.01 322.501 289.411 319.174C263.185 314.728 269.792 345.561 252.601 356.702C226.927 373.326 191.707 327.301 173.011 311.864C147.145 290.509 119.911 296.127 98.9344 324.437C85.222 342.943 80.0574 362.443 58.72 367.503C36.5343 372.78 17.9755 360.016 0.0317383 345.234V333.888C17.933 348.656 36.4176 361.134 58.5397 356.034C80.0043 351.084 85.0948 331.788 98.8495 313.201C119.741 284.972 147.272 278.781 173.011 300.518C191.866 316.446 226.354 362.552 252.442 345.602C269.718 334.379 263.45 303.055 289.74 307.596C309.254 310.964 326.423 328.665 345.989 333.901V345.247H345.979Z" fill="#0007A0"/>
<path d="M345.979 361.885C326.211 356.757 308.66 339.438 288.945 336.179C262.825 331.856 269.92 361.98 252.846 372.999C227.786 389.158 191.474 343.243 173 328.515C146.933 307.719 120.145 312.506 99.0408 340.925C85.4027 359.294 80.132 379.094 58.9643 384.331C36.6937 389.84 18.0182 376.667 0.0214844 361.885V350.539C17.9864 365.308 36.5771 378.208 58.7946 372.862C80.0789 367.735 85.2754 348.139 98.9665 329.688C119.986 301.337 147.071 295.978 173 317.169C191.633 332.388 227.192 378.372 252.676 361.898C269.835 350.798 263.069 320.183 289.263 324.602C308.904 327.902 326.296 345.384 345.979 350.552V361.898V361.885Z" fill="#0007A0"/>
<path d="M345.979 378.535C326.095 373.476 308.321 356.389 288.479 353.184C262.464 348.984 270.026 378.399 253.09 389.295C228.666 404.991 191.22 359.184 173 345.166C146.732 324.956 120.41 328.856 99.168 357.425C85.6042 375.671 80.2062 395.772 59.2294 401.172C36.874 406.927 18.0713 393.317 0.0214844 378.549V367.203C18.0394 381.972 36.7467 395.295 59.0491 389.704C80.1532 384.413 85.4663 364.516 99.0832 346.188C120.23 317.715 146.869 313.215 173 333.82C191.389 348.329 228.062 394.204 252.92 378.194C269.952 367.23 262.708 337.324 288.797 341.606C308.554 344.852 326.179 362.089 345.979 367.203V378.549V378.535Z" fill="#0007A0"/>
<path d="M345.979 395.186C326.052 390.277 308.087 373.694 288.192 370.599C262.539 366.59 270.047 394.75 253.196 405.373C229.281 420.441 191.135 375.113 173 361.844C146.615 342.548 120.59 346.039 99.2847 374.24C85.6678 392.268 80.0789 412.028 59.3037 417.537C37.0331 423.455 18.0819 409.709 0.0214844 395.186V383.84C18.0925 398.609 36.9376 412.355 59.3037 406.518C80.2274 401.064 85.6572 380.854 99.1998 362.662C120.484 334.052 146.657 330.438 173 350.457C191.146 364.244 228.952 410.037 253.164 394.477C270.058 383.622 262.348 354.439 288.33 358.598C308.215 361.789 326.052 378.795 345.979 383.84V395.186Z" fill="#0007A0"/>
<path d="M345.979 411.823C326.328 407.5 308.342 392.758 288.744 389.963C264.745 386.554 269.506 411.045 252.634 420.564C228.571 434.133 191.973 392.254 173 379.94C147.007 363.071 120.696 367.394 99.4225 392.895C85.3709 409.75 78.8063 426.919 58.5295 431.692C36.8422 436.805 18.2516 425.091 0.0214844 411.823V400.477C18.1455 414.605 36.98 427.696 59.0597 422.037C79.6972 416.759 85.583 397.831 99.3377 380.144C120.58 352.816 146.732 348.848 173 367.38C191.389 380.335 229.048 424.75 253.015 410.173C269.899 399.904 263.228 372.944 288.362 376.762C308.162 379.762 326.137 395.758 345.979 400.49V411.836V411.823Z" fill="#0007A0"/>
<path d="M345.979 428.473C326.625 424.723 308.617 411.809 289.295 409.341C266.992 406.491 268.774 427.573 252.071 436.001C227.499 448.411 193.51 410.582 173 399.809C146.975 386.145 121.608 388.531 99.5707 411.796C85.0736 427.096 77.3849 441.824 57.7656 445.847C36.6721 450.183 18.3891 440.351 0.0317383 428.46V417.114C18.3148 429.946 36.7994 441.047 58.2958 436.192C78.3818 431.651 85.2857 415.273 99.4858 398.881C120.823 374.226 147.155 369.971 173.011 386.09C192.291 398.104 228.369 438.578 252.464 425.446C269.294 416.268 265.465 392.895 288.924 396.127C308.437 398.813 326.434 412.968 345.979 417.114V428.46V428.473Z" fill="#0007A0"/>
<path d="M345.979 445.124C326.519 441.783 307.61 429.823 288.107 428.5C269.559 427.246 267.512 442.028 253.249 450.033C228.687 463.82 195.515 431.923 173.212 421.341C141.631 406.368 116.751 414.373 90.4507 440.405C62.0504 468.511 31.4866 462.797 0.0214844 445.124V433.778C18.4 445.219 36.6089 454.465 57.5114 450.374C76.8974 446.583 84.9891 432.591 99.6134 417.864C121.81 395.513 147.135 393.454 173 406.436C193.829 416.882 227.309 452.924 251.902 440.964C268.509 432.891 267.703 412.832 289.475 415.504C308.702 417.864 326.71 430.191 345.979 433.764V445.11V445.124Z" fill="#0007A0"/>
<path d="M345.979 461.761C326.742 458.993 307.939 449.038 288.669 447.906C271.553 446.897 266.844 459.211 252.824 465.988C228.03 477.948 196.416 452.283 173.181 443.065C142.32 430.832 117.843 436.11 90.5037 457.874C61.3823 481.071 31.1685 476.611 0.0214844 461.747V450.401C31.37 467.175 61.8277 472.507 90.4613 445.956C117.112 421.246 141.843 414.114 173.191 428.201C195.801 438.36 228.465 468.307 253.111 455.092C267.3 447.483 270.206 433.492 288.288 434.664C307.716 435.933 326.593 447.251 345.979 450.401V461.747V461.761Z" fill="#0007A0"/>
<path d="M345.979 478.412C326.964 476.216 308.257 468.252 289.232 467.325C273.409 466.561 266.176 476.448 252.4 481.957C227.362 491.994 197.254 472.67 173.159 464.993C143.052 455.393 118.671 458.202 90.5673 475.371C60.8308 493.535 30.967 490.439 0.0214844 478.398V467.052C31.0943 481.016 61.1808 485.039 90.5249 463.438C118.151 443.106 142.553 438.646 173.17 450.033C196.692 458.774 227.807 482.421 252.687 471.048C266.632 464.679 272.157 453.142 288.85 454.07C308.045 455.133 326.816 464.461 345.979 467.038V478.384V478.412Z" fill="#0007A0"/>
<path d="M345.979 495.062C327.187 493.426 308.586 487.453 289.794 486.758C275.063 486.198 265.519 493.685 251.976 497.926C226.672 505.849 197.996 492.621 173.128 486.662C143.593 479.571 119.296 480.948 90.6203 492.867C60.1627 505.522 31.073 504.308 0.0214844 495.076V483.73C31.317 495.008 60.2581 496.903 90.5779 480.962C119.222 465.907 142.946 463.098 173.149 471.962C197.509 479.121 227.139 496.44 252.262 487.071C265.964 481.957 273.96 472.834 289.412 473.53C308.363 474.389 327.038 481.712 345.979 483.73V495.076V495.062Z" fill="#0007A0"/>
<path d="M345.978 511.699C312.53 509.749 284.459 506.599 251.541 513.772C225.94 519.349 198.558 511.604 173.095 507.513C114.205 498.062 59.0803 523.645 0.0102539 511.699V500.353C30.9558 508.631 60.1408 509.558 90.6303 498.403C119.243 487.944 143.889 487.112 173.116 493.385C198.187 498.771 226.428 510.158 251.838 502.958C265.327 499.14 275.529 492.416 289.973 492.907C308.702 493.548 327.261 498.867 345.978 500.34V511.685V511.699Z" fill="#0007A0"/>
<path d="M345.979 528.35C288.097 526.604 230.83 531.813 173 527.245C115.065 522.677 57.9568 534.282 0.0214844 528.35V517.004C58.6249 527.04 114.567 506.026 173.096 513.922C198.707 517.372 225.718 523.563 251.414 518.79C283.993 512.749 313.029 515.381 345.979 517.004V528.35Z" fill="#0007A0"/>
<path d="M345.979 545H0.0214844V533.654C57.7977 537.718 115.213 530.013 173 533.122C230.734 536.231 288.224 532.454 345.979 533.654V545Z" fill="#0007A0"/>
</g>
<defs>
<clipPath id="clip0_2025_49">
<rect width="346" height="534" fill="white"/>
</clipPath>
</defs>
</svg>
