<svg width="346" height="534" viewBox="0 0 346 534" fill="none" xmlns="http://www.w3.org/2000/svg">
<g clip-path="url(#clip0_2025_144)">
<path d="M346 0H0V534H346V0Z" fill="#D90467"/>
<path d="M345.974 -24.2167C325.76 -26.8592 305.025 -36.9567 284.711 -36.381C271.017 -35.9824 263.455 -20.4818 251.89 -17.9131C222.329 -11.3586 203.379 -62.363 172.986 -53.1808C148.98 -45.9176 121.425 6.6517 94.2479 -13.8682C81.5296 -23.4786 78.9793 -36.6172 62.8791 -37.9016C42.4655 -39.5107 20.3444 -27.1692 0.0195312 -24.2167V-28.6012C20.3666 -31.5684 42.532 -44.0132 62.9678 -42.3746C79.201 -41.0755 81.5296 -28.055 94.1924 -17.9574C121.082 3.463 149.102 -46.8919 172.986 -54.5094C203.102 -64.1198 222.573 -15.1378 251.89 -22.1352C263.555 -24.9253 270.918 -40.3521 284.734 -40.7507C305.047 -41.3265 325.771 -31.2437 345.985 -28.6012V-24.2167H345.974Z" fill="white"/>
<path d="M345.974 -3.03255C325.76 -5.6898 305.014 -15.8169 284.689 -15.2412C271.561 -14.8573 263.078 0.864748 251.946 2.42957C221.153 6.75499 204.865 -54.5242 172.997 -47.3496C147.738 -41.666 123.144 21.9899 94.5029 5.82496C81.8622 -1.30534 77.8593 -15.7283 62.4355 -16.2745C41.8002 -16.9979 20.544 -5.92602 0.0195312 -3.04733V-7.90419C20.5661 -10.8124 41.8667 -21.9876 62.5353 -21.2347C78.1255 -20.6738 81.8068 -6.35413 94.4363 1.30761C122.723 18.4616 148.115 -42.6404 172.986 -48.6635C204.499 -56.2957 221.419 2.59195 251.923 -2.23539C263.156 -4.00689 271.439 -19.7142 284.689 -20.0833C305.003 -20.6738 325.749 -10.5467 345.963 -7.88943V-3.03255H345.974Z" fill="white"/>
<path d="M345.978 18.1515C325.753 15.4795 304.996 5.30814 284.671 5.89864C272.019 6.26771 262.782 22.0488 251.993 22.8312C220.026 25.149 206.354 -46.2721 173.012 -41.0461C145.524 -36.7355 125.044 37.6528 94.7615 25.5771C82.2428 20.5873 76.6876 5.8396 62.0067 5.35244C41.4933 4.68813 20.4366 15.3467 0.0341797 18.1368V12.8075C20.4699 9.98787 41.5709 -0.774003 62.1175 -0.0949274C76.9869 0.392235 82.1319 15.0809 94.6949 20.5726C124.556 33.6374 146.156 -38.1527 173.012 -42.8029C205.988 -48.516 220.303 20.4397 251.982 17.6644C262.849 16.7048 271.919 0.938444 284.671 0.569381C304.996 -0.0211194 325.753 10.1355 345.978 12.8075V18.1368V18.1515Z" fill="white"/>
<path d="M345.976 39.3358C325.739 36.6638 304.971 26.4481 284.635 27.0386C272.283 27.3929 262.581 43.2331 252.036 43.5283C219.081 44.4289 207.66 -35.702 173.009 -32.2771C142.816 -29.2803 126.882 54.2607 95.0032 45.6246C82.7063 42.2883 75.6208 27.4077 61.5498 26.9943C41.1584 26.3891 20.3013 36.6343 0.00976562 39.3358V33.5194C20.3346 30.8031 41.236 20.4398 61.6718 21.0598C75.887 21.4879 82.5732 36.3538 94.9366 40.0887C126.405 49.581 143.559 -31.6719 173.009 -35.0377C207.328 -38.9498 219.314 39.0258 252.025 37.8005C262.625 37.4019 272.227 21.5912 284.646 21.2369C304.982 20.6464 325.751 30.8473 345.976 33.5194V39.3358Z" fill="white"/>
<path d="M345.978 60.5348C325.742 57.848 304.951 47.6028 284.615 48.2081C272.385 48.5624 262.416 64.6831 252.093 64.7716C218.474 65.0964 208.583 -20.8214 173.034 -19.0647C154.96 -18.1642 141.754 12.409 131.353 28.8249C124.8 39.1587 108.888 68.787 95.2715 66.2183C83.1188 63.9302 74.8469 49.02 61.1307 48.6362C40.8613 48.0752 20.2038 57.9366 0.0341797 60.52V54.2312C20.237 51.6182 40.9611 41.6388 61.2637 42.2145C75.0576 42.5983 83.019 57.5085 95.205 60.0329C108.744 62.8377 124.655 34.2428 131.331 23.9976C141.809 7.90645 155.204 -22.4305 173.045 -23.5672C208.383 -25.8111 218.629 58.7928 252.093 58.3942C262.483 58.2761 272.385 42.2736 284.637 41.9193C304.973 41.3288 325.753 51.5592 345.989 54.246V60.5348H345.978Z" fill="white"/>
<path d="M345.974 81.7191C325.727 79.0176 304.937 68.7429 284.589 69.3481C272.326 69.7024 262.291 86.2069 252.145 86.3545C218.37 86.8565 208.823 -0.463771 173.041 0.230067C138.424 0.909143 129.841 91.1524 95.523 87.3289C83.6807 86.0002 74.2335 70.603 60.7612 70.2634C40.6027 69.7467 20.1004 79.2243 0.0195312 81.7191V74.9579C20.1115 72.4335 40.647 62.8526 60.8277 63.3693C74.3111 63.7236 83.6142 79.239 95.4343 80.6267C129.653 84.6716 138.468 -5.86685 173.03 -6.53117C208.812 -7.225 218.326 80.0952 252.123 79.5933C262.269 79.4457 272.326 62.9412 284.589 62.5869C304.937 61.9817 325.727 72.2564 345.974 74.9431V81.7044V81.7191Z" fill="white"/>
<path d="M345.974 102.903C325.727 100.202 304.914 89.8975 284.567 90.5027C272.326 90.8718 262.324 107.347 252.189 107.509C218.47 108.041 208.823 20.6761 173.041 21.4142C138.302 22.1376 130.373 111.48 95.7669 108.292C83.8581 107.199 73.9452 92.1561 60.5394 91.8314C40.4364 91.3442 20.0339 100.497 0.0195312 102.903V95.6696C20.0561 93.2338 40.4918 83.9777 60.6171 84.4649C74.045 84.7896 83.8027 99.9508 95.6893 101.132C130.207 104.542 138.346 14.8892 173.052 14.1806C208.834 13.4424 218.448 100.807 252.189 100.276C262.324 100.113 272.337 83.6382 284.589 83.2691C304.937 82.6638 325.749 92.9533 345.996 95.6549V102.888L345.974 102.903Z" fill="white"/>
<path d="M345.978 124.087C325.72 121.386 304.907 111.052 284.549 111.657C272.318 112.026 262.35 128.487 252.249 128.649C218.596 129.195 208.838 41.8012 173.056 42.5836C138.217 43.3512 130.887 131.793 96.0255 129.254C84.0502 128.383 73.6937 113.709 60.3323 113.414C40.2958 112.971 19.9931 121.77 0.0341797 124.087V116.367C20.0153 114.019 40.3512 105.088 60.421 105.546C73.7935 105.856 83.9947 120.662 95.9479 121.622C130.732 124.397 138.272 35.6304 173.067 34.8775C208.849 34.0951 218.562 121.489 252.237 120.943C262.35 120.781 272.329 104.306 284.571 103.951C304.929 103.346 325.742 113.665 346 116.367V124.087H345.978Z" fill="white"/>
<path d="M345.974 145.272C325.716 142.555 304.881 132.207 284.523 132.812C272.315 133.181 262.38 149.627 252.289 149.804C218.692 150.365 208.834 62.9264 173.052 63.7679C138.146 64.5798 131.36 152.121 96.2659 150.217C84.2129 149.568 73.424 135.263 60.107 134.982C40.137 134.554 19.923 143.028 0.0195312 145.272V137.078C19.9452 134.805 40.1924 126.213 60.1846 126.641C73.5238 126.937 84.1464 141.374 96.1661 142.113C131.172 144.268 138.169 56.3718 173.052 55.5747C208.834 54.748 218.647 142.172 252.267 141.611C262.369 141.448 272.304 124.988 284.523 124.619C304.892 124.014 325.705 134.347 345.974 137.064V145.257V145.272Z" fill="white"/>
<path d="M345.978 166.456C325.708 163.739 304.874 153.361 284.504 153.967C272.307 154.336 262.416 170.766 252.348 170.943C218.817 171.534 208.849 84.0513 173.078 84.9371C138.117 85.8081 131.819 172.434 96.5356 171.18C84.4161 170.752 73.1947 156.816 59.8999 156.55C39.9853 156.151 19.8711 164.286 0.0341797 166.441V157.775C19.9044 155.59 40.0518 147.323 59.9886 147.722C73.2945 147.988 84.3385 162.071 96.4247 162.603C131.641 164.123 138.128 77.1129 173.067 76.2715C208.849 75.4005 218.762 162.868 252.326 162.293C262.405 162.115 272.307 145.685 284.515 145.316C304.885 144.71 325.72 155.074 345.989 157.79V166.456H345.978Z" fill="white"/>
<path d="M345.974 187.64C325.705 184.909 304.859 174.516 284.479 175.136C272.304 175.505 262.446 191.921 252.389 192.098C218.914 192.704 208.845 105.192 173.075 106.122C138.091 107.037 132.214 192.763 96.7649 192.143C84.5678 191.936 72.9472 178.369 59.6635 178.133C39.8154 177.764 19.79 185.573 0.0195312 187.625V178.487C19.8232 176.391 39.893 168.449 59.7632 168.818C73.047 169.069 84.5012 182.783 96.654 183.093C132.037 183.994 138.091 97.8693 173.063 96.9688C208.834 96.0535 218.858 183.551 252.367 182.96C262.435 182.783 272.304 166.353 284.479 165.984C304.859 165.364 325.694 175.756 345.974 178.487V187.625V187.64Z" fill="white"/>
<path d="M345.974 208.824C325.694 206.093 304.837 195.671 284.456 196.291C272.293 196.66 262.479 213.061 252.445 213.253C219.024 213.873 208.856 126.331 173.086 127.306C138.102 128.265 132.602 213.105 97.0199 213.12C84.7452 213.12 72.7255 199.952 59.4528 199.716C39.6713 199.376 19.7456 206.846 0.0195312 208.824V199.199C19.7678 197.191 39.7378 189.559 59.5526 189.913C72.8253 190.15 84.6676 203.495 96.909 203.598C132.425 203.879 138.091 118.625 173.086 117.68C208.856 116.721 218.98 204.248 252.422 203.643C262.468 203.451 272.304 187.049 284.468 186.68C304.848 186.06 325.705 196.483 345.985 199.199V208.824H345.974Z" fill="white"/>
<path d="M345.978 230.023C325.697 227.278 304.829 216.84 284.438 217.46C272.296 217.83 262.516 234.216 252.504 234.408C219.15 235.057 208.871 147.471 173.1 148.49C138.139 149.479 132.961 233.463 97.2785 234.098C84.9261 234.319 72.5294 221.52 59.2457 221.314C39.5307 221.003 19.6937 228.134 0.0341797 230.023V219.926C19.727 217.992 39.6083 210.699 59.3565 211.024C72.6292 211.245 84.8485 224.222 97.1676 224.104C132.805 223.764 138.128 139.382 173.1 138.407C208.871 137.403 219.106 224.96 252.481 224.34C262.516 224.148 272.307 207.747 284.46 207.378C304.851 206.758 325.708 217.195 345.989 219.926V230.023H345.978Z" fill="white"/>
<path d="M345.978 251.207C325.719 248.506 304.907 238.202 284.549 238.807C272.429 239.161 262.472 255.4 252.404 255.518C218.939 255.902 208.915 168.67 173.089 169.689C138.128 170.678 132.861 255.09 97.2009 255.415C84.8707 255.533 72.6403 242.571 59.3565 242.35C39.6083 242.025 19.727 249.288 0.0341797 251.222V240.652C19.6715 238.792 39.4863 231.765 59.1791 232.075C72.4629 232.282 84.9816 244.948 97.3672 244.668C133.072 243.841 138.161 160.137 173.1 159.134C208.882 158.1 219.161 245.642 252.515 245.022C262.538 244.83 272.318 228.473 284.449 228.104C304.84 227.484 325.708 237.921 345.989 240.652V251.222L345.978 251.207Z" fill="white"/>
<path d="M345.974 272.391C325.771 269.763 305.058 259.725 284.756 260.301C272.647 260.64 262.357 276.628 252.201 276.598C218.525 276.51 208.967 189.883 173.075 190.873C138.113 191.832 132.414 277.647 96.8647 276.967C84.6454 276.731 72.9916 263.209 59.6856 262.958C39.8376 262.589 19.801 270.339 0.0195312 272.391V261.349C19.7567 259.371 39.7156 251.871 59.5082 252.211C72.8031 252.447 84.7563 265.674 97.031 265.733C132.647 265.881 138.102 180.804 173.075 179.83C208.934 178.826 218.736 265.777 252.3 265.615C262.413 265.571 272.525 249.45 284.645 249.096C304.981 248.505 325.749 258.677 345.974 261.349V272.391Z" fill="white"/>
<path d="M345.974 293.576C325.827 291.007 305.203 281.264 284.966 281.81C272.869 282.135 262.247 297.857 252.001 297.695C218.126 297.148 209.012 211.127 173.063 212.072C138.157 212.987 131.893 300.234 96.5431 298.536C84.4125 297.96 73.3908 283.862 60.0405 283.582C40.0815 283.183 19.9119 291.406 0.0195312 293.576V282.046C19.8565 279.95 39.9485 271.978 59.852 272.362C73.1801 272.613 84.5345 286.416 96.7205 286.8C132.181 287.937 138.124 201.473 173.063 200.528C208.989 199.568 218.337 285.914 252.101 286.209C262.291 286.298 272.747 270.443 284.844 270.103C305.125 269.542 325.794 279.448 345.974 282.046V293.576Z" fill="white"/>
<path d="M345.974 314.76C325.882 312.265 305.358 302.788 285.177 303.304C273.091 303.614 262.125 319.071 251.801 318.761C217.76 317.742 209.034 232.356 173.052 233.256C138.257 234.127 131.294 322.806 96.2216 320.104C84.1797 319.174 73.8232 304.515 60.3953 304.205C40.3366 303.762 20.0117 312.457 0.0195312 314.76V302.758C19.9452 300.529 40.1924 292.1 60.1957 292.528C73.5793 292.808 84.3127 307.157 96.399 307.881C131.638 310.007 138.191 222.14 173.052 221.254C209.023 220.324 217.96 306.08 251.912 306.818C262.191 307.039 272.969 291.435 285.055 291.125C305.269 290.594 325.849 300.234 345.974 302.758V314.76Z" fill="white"/>
<path d="M345.978 335.944C325.941 333.523 305.517 324.312 285.391 324.799C273.305 325.094 262.017 340.299 251.605 339.842C217.42 338.365 209.037 253.584 173.045 254.441C138.416 255.267 130.643 345.378 95.9036 341.658C83.9393 340.373 74.2814 325.153 60.7537 324.828C40.5952 324.326 20.104 333.523 0.0341797 335.944V323.47C20.0596 321.123 40.451 312.221 60.5541 312.679C74.0153 312.989 84.0945 327.884 96.1032 328.962C131.053 332.091 138.327 242.823 173.067 241.966C209.06 241.081 217.642 326.231 251.738 327.427C262.106 327.796 273.205 312.443 285.292 312.133C305.45 311.631 325.93 320.99 346 323.455V335.93L345.978 335.944Z" fill="white"/>
<path d="M345.976 357.128C325.995 354.781 305.659 345.835 285.6 346.293C273.514 346.573 261.904 361.513 251.392 360.922C217.085 358.988 209.002 274.813 173.009 275.624C138.591 276.407 129.898 367.934 95.5576 363.21C83.6709 361.572 74.7338 345.805 61.0841 345.436C40.8258 344.89 20.1794 354.574 0.00976562 357.114V344.167C20.1239 341.701 40.6705 332.312 60.8734 332.829C74.4344 333.169 83.8262 348.61 95.7572 350.028C130.353 354.146 138.469 263.475 173.02 262.663C209.013 261.822 217.274 346.366 251.514 348.02C261.971 348.522 273.381 333.42 285.467 333.139C305.559 332.667 325.961 341.761 345.976 344.167V357.114V357.128Z" fill="white"/>
<path d="M345.977 378.313C326.062 376.024 305.815 367.359 285.812 367.802C273.836 368.067 261.584 382.948 251.194 382.018C216.721 378.918 209.003 296.071 173 296.838C154.305 297.237 141.476 328.445 131.163 345.599C125.009 355.829 108.998 387.82 95.2263 384.808C83.0624 382.151 75.4447 366.503 61.4291 366.089C41.071 365.499 20.2694 375.67 0 378.327V364.894C20.2029 362.31 40.9047 352.449 61.2074 353.01C74.9014 353.394 83.5725 369.367 95.4258 371.138C129.6 376.216 138.67 284.172 173 283.419C208.981 282.622 216.954 366.562 251.305 368.673C261.839 369.322 273.57 354.471 285.657 354.191C305.693 353.733 325.996 362.576 345.955 364.908V378.342L345.977 378.313Z" fill="white"/>
<path d="M345.976 399.512C326.116 397.297 305.958 388.897 286.021 389.311C274.013 389.562 261.505 404.147 250.993 403.114C216.475 399.689 208.924 317.314 172.987 318.037C154.204 318.421 141.097 350.102 130.73 367.3C124.853 377.058 108.431 409.831 94.9034 406.376C82.7728 403.276 75.9868 387.17 61.7826 386.713C41.3247 386.063 20.3568 396.722 0.00976562 399.512V385.605C20.3013 382.889 41.1584 372.555 61.5498 373.175C75.6208 373.603 82.9613 389.414 95.1141 392.219C108.797 395.378 124.953 363.122 131.007 353.054C141.33 335.885 154.259 304.515 172.987 304.131C208.969 303.378 216.631 386.063 251.115 389.281C261.538 390.256 273.891 375.464 285.866 375.213C305.836 374.784 326.061 383.361 345.953 385.62V399.526L345.976 399.512Z" fill="white"/>
<path d="M345.978 420.695C326.185 418.717 306.171 411.233 286.323 411.587C274.481 411.794 261.574 424.814 250.851 423.249C217.132 418.348 207.984 341.199 173 341.834C137.884 342.484 130.122 425.67 94.9832 426.276C84.9372 426.453 73.7602 409.417 61.4301 409.077C41.0609 408.516 20.3036 418.171 0.0341797 420.695V406.317C20.3923 403.541 41.3602 392.912 61.8292 393.562C75.9557 394.005 82.7972 409.993 94.8834 413.034C108.334 416.429 124.811 383.745 130.688 374.061C141.077 356.936 154.272 325.3 173.012 324.931C208.827 324.222 216.522 405.948 250.962 409.712C261.507 410.864 274.148 396.544 286.123 396.308C306.038 395.909 326.152 404.132 345.989 406.302V420.681L345.978 420.695Z" fill="white"/>
<path d="M345.976 441.88C326.261 440.182 306.401 433.775 286.642 434.07C274.756 434.247 261.793 445.452 250.705 443.755C218.349 438.794 206.363 371.108 172.987 371.684C139.312 372.274 128.889 444.906 95.1251 446.353C84.7022 446.796 72.9153 432.196 60.8401 431.915C40.6262 431.457 20.1572 439.71 0.00976562 441.88V427.029C20.2459 424.608 40.9256 415.366 61.2393 415.898C73.4586 416.222 84.8685 432.491 95.0143 432.21C129.798 431.221 138.236 350.825 172.987 350.205C207.527 349.585 217.462 424.209 250.805 429.317C261.627 430.97 274.589 418.511 286.42 418.319C306.246 417.994 326.205 425.154 345.976 427.043V441.894V441.88Z" fill="white"/>
<path d="M345.978 463.064C326.352 461.647 306.625 456.333 286.966 456.554C274.891 456.687 262.084 466.135 250.574 464.762C219.738 461.057 204.513 405.151 173 405.682C141.21 406.214 127.261 465.736 95.3048 466.932C84.4161 467.331 72.3853 454.989 60.288 454.768C40.2403 454.413 20.0264 461.263 0.0341797 463.064V447.726C20.1373 445.659 40.5397 437.791 60.7093 438.219C72.7734 438.47 84.66 452.45 95.1939 451.978C128.492 450.501 139.824 381.295 173.012 380.719C205.899 380.158 218.74 444.788 250.685 449.497C261.884 451.151 274.824 440.419 286.744 440.256C306.47 439.99 326.296 446.087 345.989 447.711V463.05L345.978 463.064Z" fill="white"/>
<path d="M345.977 484.248C326.439 483.126 306.846 478.86 287.287 479.037C275.056 479.14 262.216 487.053 250.429 486.02C221.3 483.451 202.483 441.407 172.988 441.85C143.227 442.308 125.398 487.511 95.448 487.747C84.016 487.835 71.9741 477.767 59.6883 477.605C39.8181 477.339 19.848 482.801 0 484.248V468.438C19.9589 466.725 40.1064 460.23 60.1096 460.554C72.2402 460.746 84.2932 472.542 95.315 472.187C126.772 471.198 141.686 415.233 172.966 414.717C203.947 414.215 220.125 466.518 250.507 470.135C262.05 471.508 274.934 462.385 287.02 462.252C306.647 462.045 326.34 467.094 345.944 468.438V484.248H345.977Z" fill="white"/>
<path d="M345.974 505.433C326.536 504.592 307.065 501.403 287.605 501.521C275.142 501.595 262.457 507.736 250.293 507.308C222.717 506.319 200.695 477.886 172.997 478.241C145.11 478.595 123.654 509.478 95.6228 508.607C83.6696 508.238 71.6388 500.561 59.1312 500.458C39.4384 500.281 19.7013 504.355 0.0195312 505.433V489.15C19.8232 487.792 39.7378 482.655 59.5747 482.891C71.9049 483.038 83.9468 492.575 95.5008 492.575C124.985 492.605 143.702 450.738 172.997 450.31C202.048 449.882 221.663 488.737 250.404 490.936C262.28 491.852 275.076 484.323 287.362 484.234C306.888 484.072 326.459 488.072 345.974 489.135V505.418V505.433Z" fill="white"/>
<path d="M345.974 526.617C313.718 525.672 282.095 528.063 250.16 528.388C223.759 528.654 199.431 512.637 172.997 512.873C146.485 513.109 122.357 530.824 95.7891 529.259C83.4035 528.536 71.2396 523.369 58.5657 523.295C39.0503 523.192 19.5238 525.893 0.0195312 526.617V509.861C19.6569 508.857 39.3608 505.063 59.0092 505.226C71.5501 505.329 83.592 512.489 95.6561 512.947C123.332 514.01 145.454 486.005 172.997 485.68C200.385 485.356 222.983 511.042 250.271 511.736C262.513 512.046 275.164 506.289 287.683 506.215C307.11 506.097 326.559 509.064 345.974 509.847V526.602V526.617Z" fill="white"/>
<path d="M345.974 547.801C230.334 546.118 115.571 545.661 0.0195312 547.801V530.558C32.7743 529.466 63.5111 531.075 95.8113 533.053C122.19 534.677 146.662 519.177 172.997 518.955C199.265 518.748 223.892 532.684 250.138 532.256C282.128 531.74 313.718 529.688 345.974 530.544V547.786V547.801Z" fill="white"/>
</g>
<defs>
<clipPath id="clip0_2025_144">
<rect width="346" height="534" fill="white"/>
</clipPath>
</defs>
</svg>
