<svg width="346" height="534" viewBox="0 0 346 534" fill="none" xmlns="http://www.w3.org/2000/svg">
<g clip-path="url(#clip0_2025_89)">
<path d="M346 0H0V534H346V0Z" fill="#D90467"/>
<path d="M345.89 -40.8794C328.467 -35.4707 315.131 -37.1561 297.697 -40.3737C287.582 -42.243 273.742 -48.2952 263.431 -44.1583C246.314 -37.2787 247.64 -15.8738 228.486 -10.5724C198.461 -2.26786 152.93 3.95287 127.507 -24.2243C111.158 -42.335 106.917 -49.9653 84.4972 -53.7192C54.8667 -58.6989 24.9732 -51.0838 -3.66016 -41.2471C-3.66016 -43.8365 -3.66016 -45.1236 -3.66016 -47.713C24.9841 -56.9981 54.8886 -64.5366 84.4424 -59.7255C106.863 -56.0788 111.169 -48.6017 127.486 -30.4144C152.623 -2.39043 197.496 -8.07491 227.291 -16.3488C246.534 -21.6962 245.054 -43.2083 262.215 -50.2258C272.548 -54.4547 286.651 -48.5097 296.842 -46.8243C314.375 -43.9285 328.379 -42.3809 345.89 -47.3759C345.89 -44.7865 345.89 -43.4841 345.89 -40.8794Z" fill="white"/>
<path d="M345.879 -27.488C328.609 -21.2213 316.676 -23.2131 299.417 -27.0896C289.456 -29.3266 276.153 -35.6393 265.896 -31.6556C248.561 -24.9139 250.61 -2.63565 230.929 1.31743C199.271 7.67607 154.738 18.2789 127.551 -11.4765C111.136 -29.4492 106.983 -37.3554 84.6066 -41.3391C54.7788 -46.6405 24.9511 -38.8569 -3.64941 -27.8863C-3.64941 -30.4911 -3.64941 -31.8088 -3.64941 -34.4135C24.962 -44.8325 54.8227 -52.5242 84.5518 -47.3913C106.95 -43.5148 111.158 -35.7465 127.54 -17.7125C154.453 11.9203 198.318 1.80775 229.757 -4.48961C249.525 -8.45801 247.322 -30.8895 264.713 -37.769C274.991 -41.8294 288.557 -35.6393 298.595 -33.5861C315.931 -30.0468 328.565 -28.1928 345.901 -34.0305C345.901 -31.4104 345.901 -30.0927 345.901 -27.4726L345.879 -27.488Z" fill="white"/>
<path d="M345.868 -14.1115C329.387 -7.10935 318.988 -8.81009 302.474 -13.2994C291.33 -16.3332 277.972 -23.5805 266.598 -18.2485C250.796 -10.8479 251.651 9.66827 232.792 13.223C197.628 19.8574 154.026 31.732 124.461 -2.61999C88.464 -44.4338 38.7255 -32.6205 -3.66016 -14.5712C-3.66016 -17.2066 -3.66016 -18.5243 -3.66016 -21.1597C24.9294 -32.6818 54.7133 -40.588 84.6506 -35.1027C107.016 -31.0117 111.136 -22.9523 127.573 -5.05621C155.034 24.8524 200.236 13.7439 232.135 7.33932C251.739 3.40156 249.832 -18.7388 267.124 -25.3426C277.37 -29.2497 290.399 -22.8144 300.283 -20.3936C317.465 -16.1647 328.686 -14.0043 345.89 -20.7306C345.89 -18.0799 345.89 -16.7622 345.89 -14.1115H345.868Z" fill="white"/>
<path d="M345.857 -0.704938C329.464 7.21655 320.325 5.31661 303.91 0.12244C292.875 -3.37098 280.12 -10.8941 268.691 -5.63863C252.955 1.59336 253.58 21.8184 234.841 25.3272C199.272 31.9922 154.464 44.9547 124.45 10.2043C88.1572 -31.8087 38.868 -20.9607 -3.66016 -1.2259C-3.66016 -3.89194 -3.66016 -5.20963 -3.66016 -7.87566C38.7913 -26.783 88.3106 -38.1213 124.461 3.7844C154.267 38.3509 198.483 25.9094 233.866 19.2597C252.659 15.7203 251.925 -4.62739 267.694 -11.9513C279.09 -17.2374 292.141 -9.85221 303.231 -6.58861C319.689 -1.74685 329.442 0.0611627 345.879 -7.38534C345.879 -4.71931 345.879 -3.38629 345.879 -0.704938H345.857Z" fill="white"/>
<path d="M345.846 12.6868C329.485 21.5582 321.486 19.5051 305.115 13.6214C294.168 9.68364 281.939 1.90005 270.411 7.10954C254.73 14.2036 255.157 34.1989 236.528 37.6617C200.641 44.3574 154.771 58.3004 124.406 23.1364C87.8608 -19.1677 38.966 -9.25437 -3.68262 12.1045C-3.68262 9.42318 -3.68262 8.07483 -3.68262 5.39348C38.9003 -15.1534 88.0032 -25.557 124.428 16.5939C154.639 51.5587 199.983 38.0907 235.728 31.4103C254.412 27.9168 253.886 7.81436 269.6 0.658977C281.073 -4.56583 293.554 3.07986 304.545 6.78779C320.927 12.3344 329.485 14.3109 345.857 5.92973C345.857 8.62641 345.857 9.97476 345.857 12.6714L345.846 12.6868Z" fill="white"/>
<path d="M345.835 26.078C329.442 35.9454 322.428 33.785 306.035 27.2118C295.121 22.8297 283.319 14.8163 271.671 20.0411C256.045 27.0433 256.308 46.8394 237.778 50.2868C201.693 56.9979 154.924 71.753 124.373 36.2059C87.6526 -6.52724 39.0647 2.54338 -3.68262 25.4651C-3.68262 22.7531 -3.68262 21.4048 -3.68262 18.6928C39.0099 -3.44753 87.7622 -12.9472 124.395 29.5408C154.88 64.904 201.2 50.532 237.208 43.8362C255.793 40.3735 255.453 20.5008 271.101 13.4527C282.684 8.24318 294.683 16.134 305.608 20.3016C321.979 26.5377 329.474 28.6521 345.835 19.2904V26.0933V26.078Z" fill="white"/>
<path d="M345.812 39.4849C329.31 50.3788 323.096 48.1724 306.55 40.9558C295.625 36.1906 284.119 27.9321 272.295 33.2182C256.724 40.1897 256.866 59.8325 238.402 63.2647C202.262 69.991 154.814 85.3437 124.285 49.4288C87.4767 6.14413 39.108 14.418 -3.70508 38.8107C-3.70508 36.0834 -3.70508 34.7197 -3.70508 31.9771C39.0641 8.31986 87.5534 -0.367708 124.318 42.6259C154.891 78.3568 202.01 63.2953 238.15 56.5689C256.647 53.1215 256.45 33.4173 272.043 26.4305C283.768 21.1904 295.416 29.311 306.32 33.8923C322.768 40.7872 329.375 42.9783 345.801 32.6206C345.801 35.3633 345.801 36.7269 345.801 39.4695L345.812 39.4849Z" fill="white"/>
<path d="M345.802 52.8758C330.044 64.398 323.929 63.3101 307.788 55.8483C296.699 50.7154 282.19 39.1932 270.049 46.6091C255.475 55.5112 257.096 72.013 238.917 76.6249C208.541 84.3166 162.145 97.3097 133.775 73.3767C112.746 55.6338 106.621 37.7223 79.7625 32.9112C50.2306 27.6251 23.1971 35.9909 -3.71582 52.171C-3.71582 49.413 -3.71582 48.0341 -3.71582 45.2761C39.0753 20.2552 87.4769 12.2265 124.241 55.8942C154.683 92.0389 202.361 76.4411 238.479 69.6841C256.91 66.2366 256.8 46.5785 272.361 39.6376C284.272 34.3208 295.701 42.7633 306.649 47.6816C323.294 55.1741 329.233 57.3498 345.813 45.9656C345.813 48.7389 345.813 50.1178 345.813 52.8758H345.802Z" fill="white"/>
<path d="M345.792 66.283C330.144 78.7704 324.106 78.1116 307.79 70.3127C296.821 65.0726 282.224 52.4319 270.028 59.5566C255.399 68.091 257.032 85.221 238.918 90.0015C208.751 97.9689 161.62 111.897 133.535 87.2742C126.204 78.3568 119.07 69.1329 112.145 59.6026C102.129 51.8343 91.3904 47.2377 79.9282 45.8128C50.2429 40.3581 23.1656 48.8312 -3.73633 65.5475C-3.73633 62.7589 -3.73633 61.3646 -3.73633 58.5913C23.1656 42.1508 50.221 33.7237 79.8296 39.1017C91.2698 40.5114 102.02 45.062 112.057 52.7383C119.037 62.1767 126.237 71.278 133.655 80.0422C161.883 104.328 208.63 90.8748 238.907 83.0453C257.065 78.3567 255.432 61.5638 270.028 52.8303C282.203 45.5523 296.744 57.6107 307.779 62.7896C323.997 70.4046 330.078 71.2933 345.781 59.3115C345.781 62.1001 345.781 63.4944 345.781 66.283H345.792Z" fill="white"/>
<path d="M345.781 79.6896C330.275 93.127 324.292 92.9278 307.789 84.7918C296.941 79.4444 282.235 65.6852 269.995 72.5035C255.333 80.6702 256.955 98.4284 238.896 103.393C208.948 111.621 161.072 126.498 133.271 101.186C126.105 91.9778 119.114 82.5088 112.298 72.7946C102.304 64.8578 91.5651 60.1693 80.0811 58.6984C50.2314 53.0752 23.1322 61.6402 -3.75879 78.9235C-3.75879 76.1195 -3.75879 74.7099 -3.75879 71.906C23.1432 54.9139 50.2205 46.3948 79.9825 51.9261C91.4556 53.3663 102.194 58.0089 112.199 65.8538C119.07 75.4607 126.138 84.8071 133.392 93.8624C161.346 118.822 208.827 104.435 238.885 96.3446C256.988 91.4722 255.355 74.0664 269.995 65.6852C282.213 58.6984 296.864 71.8753 307.778 77.1614C324.182 85.1289 330.198 85.5732 345.781 72.6261C345.781 75.4454 345.781 76.855 345.781 79.6589V79.6896Z" fill="white"/>
<path d="M345.769 93.0963C330.417 107.468 324.478 107.744 307.778 99.2558C297.039 93.8011 282.246 78.9081 269.962 85.4353C255.278 93.2342 256.867 111.621 238.885 116.754C209.145 125.242 160.535 141.054 133.019 115.068C126.017 105.584 119.157 95.8849 112.451 85.9716C102.49 77.8816 91.7511 73.0704 80.2342 71.5842C50.2311 65.7925 23.0881 74.4494 -3.79199 92.2843C-3.79199 89.4497 -3.79199 88.0401 -3.79199 85.2055C23.0881 67.6464 50.2092 59.0508 80.1356 64.7506C91.6415 66.2368 102.38 70.9713 112.352 78.9848C119.113 88.7908 126.05 98.3518 133.129 107.698C160.798 133.347 209.013 118.01 238.863 109.659C256.9 104.619 255.278 86.5691 269.951 78.571C282.213 71.8906 296.951 86.1708 307.756 91.5795C324.346 99.884 330.307 99.8687 345.747 85.9869C345.747 88.8215 345.747 90.2464 345.747 93.081L345.769 93.0963Z" fill="white"/>
<path d="M345.759 106.503C330.582 121.779 324.665 122.561 307.778 113.72C297.138 108.158 282.246 92.1466 269.929 98.3674C255.223 105.799 256.769 124.829 238.863 130.13C209.342 138.879 159.998 155.626 132.757 128.965C125.919 119.19 119.201 109.261 112.605 99.1641C102.677 90.9056 91.9488 86.0025 80.3881 84.4703C50.2315 78.51 23.0447 87.2589 -3.81348 105.661C-3.81348 102.811 -3.81348 101.37 -3.81348 98.5206C23.0556 80.41 50.2206 71.7224 80.2894 77.5754C91.8282 79.0923 102.567 83.934 112.506 92.1007C119.158 102.091 125.952 111.897 132.877 121.534C160.261 147.842 209.211 131.586 238.852 122.975C256.812 117.765 255.234 99.0875 269.929 91.4418C282.224 85.0526 297.072 100.451 307.756 105.967C324.544 114.624 330.472 114.118 345.737 99.3327C345.737 102.198 345.737 103.623 345.737 106.488L345.759 106.503Z" fill="white"/>
<path d="M345.747 119.91C330.757 136.075 324.861 137.377 307.767 128.184C297.225 122.515 282.245 105.369 269.896 111.299C255.19 118.362 256.669 138.036 238.852 143.506C209.539 152.5 159.461 170.182 132.504 142.878C125.83 132.826 119.245 122.653 112.758 112.356C102.862 103.929 92.1345 98.9342 80.5409 97.3713C50.22 91.2578 22.9893 100.068 -3.83594 119.052C-3.83594 116.171 -3.83594 114.731 -3.83594 111.851C23.0112 93.1731 50.22 84.4089 80.4423 90.4304C92.014 91.978 102.753 96.927 112.659 105.247C119.201 115.436 125.863 125.472 132.624 135.385C159.735 162.367 209.407 145.161 238.841 136.305C256.713 130.927 255.19 111.605 269.896 104.343C282.224 98.2447 297.159 114.777 307.756 120.385C324.741 129.379 330.647 128.383 345.736 112.693C345.736 115.574 345.736 117.029 345.736 119.91H345.747Z" fill="white"/>
<path d="M345.748 133.317C331.699 149.665 325.64 152.439 308.885 143.445C298.201 137.714 284.35 119.987 271.803 124.062C260.998 127.571 263.924 133.102 257.448 142.632C250.544 152.806 248.331 153.634 238.425 156.851C208.531 166.566 154.53 185.565 129.064 153.082C110.314 129.164 106.457 114.731 78.0758 109.782C48.4233 104.603 22.146 113.245 -3.85742 132.413C-3.85742 129.502 -3.85742 128.061 -3.85742 125.15C22.1569 106.289 48.4124 97.693 77.9772 102.78C106.15 107.637 110.336 122.04 129.162 145.574C154.815 177.643 208.411 159.15 238.414 149.573C248.254 146.432 250.555 145.62 257.448 135.584C263.902 126.192 261.108 120.615 271.792 116.983C284.328 112.739 298.146 129.869 308.852 135.554C325.486 144.379 331.557 141.928 345.715 126.023C345.715 128.935 345.715 130.39 345.715 133.301L345.748 133.317Z" fill="white"/>
<path d="M345.737 146.739C331.897 163.869 325.848 167.255 308.885 157.939C298.234 152.102 284.35 133.317 271.77 137.086C260.769 140.38 263.914 145.866 257.426 155.595C250.501 165.999 248.441 166.857 238.403 170.228C208.696 180.202 153.972 200.152 128.856 166.887C110.26 142.265 106.984 127.786 78.2187 122.653C48.4019 117.336 22.0916 126.054 -3.87891 145.774C-3.87891 142.847 -3.87891 141.376 -3.87891 138.45C22.1026 119.037 48.4019 110.349 78.1201 115.589C106.677 120.615 110.282 135.064 128.954 159.303C154.267 192.154 208.586 172.725 238.403 162.888C248.364 159.61 250.512 158.751 257.426 148.486C263.903 138.863 260.878 133.348 271.77 129.931C284.328 125.993 298.201 144.196 308.863 149.972C325.706 159.104 331.755 156.07 345.715 139.369C345.715 142.311 345.715 143.767 345.715 146.708L345.737 146.739Z" fill="white"/>
<path d="M345.725 160.146C332.105 178.042 326.078 182.041 308.884 172.419C298.266 166.474 284.349 146.632 271.748 150.079C260.549 153.159 263.924 158.583 257.404 168.542C250.456 179.176 248.55 180.08 238.391 183.588C208.86 193.808 153.423 214.707 128.647 180.662C110.215 155.35 107.52 140.825 78.3713 135.508C48.4011 130.053 22.0361 138.848 -3.89062 159.135C-3.89062 156.177 -3.89062 154.706 -3.89062 151.749C22.058 131.769 48.3901 123.005 78.2727 128.383C107.213 133.593 110.237 148.087 128.756 173.016C153.719 206.633 208.761 186.255 238.391 176.188C248.484 172.756 250.467 171.867 257.415 161.372C263.913 151.535 260.669 146.065 271.759 142.878C284.338 139.247 298.255 158.506 308.884 164.39C325.946 173.828 331.984 170.182 345.725 152.715C345.725 155.672 345.725 157.158 345.725 160.115V160.146Z" fill="white"/>
<path d="M345.715 173.568C332.313 192.2 326.308 196.842 308.885 186.913C298.288 180.877 284.339 159.947 271.715 163.103C260.33 165.953 263.913 171.346 257.382 181.52C250.402 192.383 248.66 193.318 238.381 196.995C209.013 207.46 152.886 229.294 128.439 194.498C124.275 182.225 118.522 171.699 111.202 162.904C101.099 154.722 90.2064 149.895 78.5142 148.424C48.3796 142.817 21.9708 151.719 -3.91211 172.557C-3.91211 169.584 -3.91211 168.098 -3.91211 165.11C21.9927 144.579 48.3796 135.723 78.4156 141.238C107.739 146.632 110.194 161.172 128.538 186.791C153.16 221.173 208.904 199.86 238.37 189.533C248.583 185.948 250.424 185.029 257.382 174.303C263.902 164.252 260.439 158.828 271.715 155.856C284.328 152.531 298.256 172.863 308.863 178.839C326.155 188.599 332.171 184.309 345.704 166.106C345.704 169.094 345.704 170.58 345.704 173.568H345.715Z" fill="white"/>
<path d="M345.705 186.99C333.202 205.514 327.098 211.735 309.949 202.22C298.804 196.045 286.696 175.575 273.743 176.555C256.605 177.842 256.923 204.273 238.776 210.386C207.754 220.851 149.37 245.673 125.634 203.89C110.074 176.509 103.696 165.278 76.0931 160.881C46.616 156.192 21.1167 164.941 -3.94434 185.932C-3.94434 182.929 -3.94434 181.428 -3.94434 178.425C21.9166 157.326 48.3474 148.393 78.5477 154.063C90.2509 155.549 101.154 160.406 111.247 168.664C118.556 177.536 124.254 188.154 128.319 200.534C152.613 235.683 209.047 213.435 238.338 202.863C248.671 199.14 250.359 198.175 257.35 187.219C263.892 176.954 260.221 171.56 271.683 168.802C284.318 165.769 298.267 187.173 308.864 193.256C326.386 203.323 332.391 198.389 345.694 179.451C345.694 182.454 345.694 183.971 345.694 186.974L345.705 186.99Z" fill="white"/>
<path d="M345.704 200.412C333.431 219.58 327.349 226.506 309.959 216.73C298.749 210.433 286.728 189.013 273.721 189.641C256.506 190.483 256.922 217.466 238.765 223.763C207.885 234.473 148.777 260.306 125.47 217.588C122.708 204.626 117.317 194.498 109.306 187.205C98.962 179.544 87.9382 175.069 76.2241 173.767C46.5826 168.956 21.0394 177.781 -3.9668 199.34C-3.9668 196.321 -3.9668 194.804 -3.9668 191.77C21.0614 170.534 46.5826 161.739 76.1255 166.474C103.849 170.917 110.106 182.164 125.546 209.82C149.095 252.032 207.786 226.751 238.754 216.194C256.9 210.004 256.549 183.328 273.71 182.24C286.684 181.413 298.76 202.281 309.926 208.517C327.174 218.14 333.267 211.628 345.671 192.828C345.671 195.861 345.671 197.378 345.671 200.412H345.704Z" fill="white"/>
<path d="M345.691 213.834C333.648 233.615 327.6 241.291 309.968 231.24C298.681 224.805 286.759 202.45 273.697 202.741C256.394 203.124 256.931 230.658 238.752 237.139C208.015 248.109 148.184 274.938 125.314 231.271C122.783 218.109 117.512 207.782 109.502 200.32C99.1685 192.521 88.1228 187.955 76.3648 186.622C46.559 181.688 20.972 190.606 -3.97949 212.7C-3.97949 209.651 -3.97949 208.119 -3.97949 205.07C20.9939 183.267 46.559 174.395 76.2662 179.268C87.9913 180.585 99.037 185.09 109.37 192.812C117.381 200.182 122.728 210.387 125.38 223.441C148.502 266.588 207.905 240.326 238.741 229.508C256.909 223.135 256.438 195.923 273.686 195.264C286.715 194.773 298.692 216.592 309.935 222.951C327.424 232.849 333.495 225.601 345.669 206.173C345.669 209.237 345.669 210.754 345.669 213.819L345.691 213.834Z" fill="white"/>
<path d="M345.682 227.21C333.529 246.746 327.349 253.916 309.772 244.095C298.365 237.721 286.717 216.301 273.6 216.362C256.44 216.423 255.41 243.36 238.096 250.285C207.49 262.543 148.832 286.246 125.469 244.264C110.117 216.669 103.268 205.652 75.8183 200.933C46.1768 195.846 20.8857 204.181 -3.97808 226.184C-3.98904 223.058 -4 221.495 -4 218.4C20.9186 196.183 46.4508 187.373 76.2676 192.368C88.0256 193.732 99.0822 198.297 109.438 206.081C117.459 213.497 122.752 223.763 125.327 236.894C148.218 280.424 207.994 254.1 238.709 242.808C256.703 236.189 256.429 208.64 273.699 208.395C286.771 208.211 298.617 230.581 309.937 237.032C327.601 247.098 333.661 239.376 345.682 219.534C345.682 222.598 345.682 224.146 345.682 227.21Z" fill="white"/>
<path d="M345.672 240.586C314.343 288.115 305.773 231.271 272.823 230.336C255.575 229.846 251.838 255.311 235.379 262.727C205.135 276.333 149.446 296.818 125.404 257.425C109.625 231.577 101.198 220.944 74.9425 216.209C45.6627 210.923 20.8318 218.385 -3.87859 239.989C-3.91146 236.771 -3.92242 235.162 -3.94434 231.975C20.8537 210.126 45.9695 202.159 75.4576 207.322C102.414 212.042 109.942 222.874 125.492 249.749C149.161 290.644 206.702 268.488 237.198 255.617C254.095 248.493 256.221 222.108 273.36 222.231C286.542 222.323 298.037 242.961 309.565 249.305C327.098 258.942 333.377 252.17 345.672 232.879C345.672 235.975 345.672 237.522 345.672 240.617V240.586Z" fill="white"/>
<path d="M345.648 253.963C313.311 299.454 303.065 242.732 269.259 243.942C252.866 244.525 245.743 267.799 230.041 274.525C201.155 286.921 152.995 307.942 127.605 274.831C109.546 251.282 103.486 238.242 76.4528 232.328C46.7894 225.832 21.564 232.42 -3.74903 254.009C-3.79287 250.715 -3.81478 249.06 -3.84766 245.796C20.775 224.361 45.3977 217.267 74.5023 222.66C100.254 227.425 109.327 237.89 125.238 263.003C149.543 301.369 203.621 281.742 233.668 267.707C249.929 260.107 254.871 235.408 272.273 236.189C305.114 237.691 314.483 292.207 345.659 246.164C345.659 249.274 345.659 250.837 345.659 253.963H345.648Z" fill="white"/>
<path d="M345.639 267.323C314.288 308.325 300.547 260.627 267.213 258.145C250.151 256.873 239.609 278.462 224.104 285.909C196.205 299.3 152.361 319.066 126.95 288.299C109.012 266.572 100.935 254.131 75.4032 248.247C46.2001 241.521 21.5555 247.098 -3.53843 268.227C-3.59322 264.856 -3.61513 263.186 -3.66992 259.846C21.5555 238.426 46.5288 232.251 76.0169 238.839C102.437 244.738 109.34 257.517 127.355 280.332C152.756 312.492 199.229 292.083 227.731 279.259C243.017 272.379 252.058 249.013 268.473 249.764C301.917 251.312 314.113 302.502 345.639 259.463C345.639 262.604 345.639 264.182 345.639 267.323Z" fill="white"/>
<path d="M345.616 280.684C314.485 318.33 297.927 276.332 264.746 272.41C246.348 270.234 233.549 288.268 217.166 296.971C190.429 311.175 151.506 330.327 126.138 301.966C108.386 282.109 98.3703 270.234 74.3174 264.397C45.5964 257.425 21.5326 261.976 -3.32022 282.614C-3.38597 279.198 -3.40788 277.481 -3.47363 274.08C21.5216 253.135 45.9252 247.971 74.9311 254.79C99.8606 260.658 108.737 272.854 126.609 293.83C152.01 323.631 193.913 304.172 221.363 290.444C237.154 282.538 248.671 262.313 266.236 263.937C299.505 267.017 314.364 312.354 345.616 272.762C345.616 275.934 345.616 277.512 345.616 280.684Z" fill="white"/>
<path d="M345.594 294.06C314.583 328.611 295.1 291.808 262.028 286.736C242.14 283.687 227.281 297.508 209.616 307.835C184.128 322.728 150.618 341.528 125.338 315.741C87.2478 276.869 40.2379 261.7 -3.05731 297.109C-3.12306 293.647 -3.15593 291.915 -3.22168 288.468C21.5435 268.013 45.3772 263.876 73.901 270.939C97.3621 276.762 108.145 288.406 125.809 307.498C151.133 334.863 187.941 315.863 214.175 301.369C231.039 292.053 244.682 275.643 263.672 278.171C296.798 282.584 314.528 322.437 345.605 286.077C345.605 289.264 345.605 290.858 345.605 294.045L345.594 294.06Z" fill="white"/>
<path d="M345.572 307.421C313.75 339.643 290.617 305.337 256.648 300.587C236.485 297.768 220.508 306.701 202.34 318.054C178.966 332.641 152.163 351.901 127.244 331.814C108.933 317.043 96.8027 304.019 74.9415 297.661C46.33 289.341 22.5621 291.547 -2.78387 311.619C-2.84962 308.126 -2.88249 306.379 -2.94824 302.901C39.9196 268.059 86.8638 283.794 125.053 321.226C150.278 345.956 181.552 327.294 206.525 312.14C224.749 301.078 240.43 289.08 260.91 292.451C293.949 297.891 314.605 332.779 345.583 299.407C345.583 302.625 345.583 304.234 345.583 307.436L345.572 307.421Z" fill="white"/>
<path d="M345.55 320.782C313.783 350.277 287.582 320.598 253.722 314.852C232.123 311.19 214.251 315.572 194.537 328.719C171.186 344.286 152.36 361.171 126.674 345.175C108.341 333.76 94.8192 320.123 74.1634 313.902C45.9464 305.399 22.7154 306.517 -2.53192 326.099C-2.59767 322.59 -2.63054 320.843 -2.69629 317.319C22.6058 297.431 46.1437 295.654 74.6017 304.05C96.0685 310.378 108.385 324.735 126.97 337.069C153.039 354.353 174.999 337.728 199.216 322.238C218.009 310.21 234.72 303.024 255.464 306.195C289.39 311.374 313.75 343.796 345.55 312.677C345.55 315.91 345.55 317.534 345.55 320.767V320.782Z" fill="white"/>
<path d="M345.528 334.143C313.76 361.156 284.766 335.476 251.004 329.087C228.156 324.766 208.289 324.429 187.239 339.552C165.378 355.257 151.417 372.233 126.499 358.398C83.7075 334.648 42.4724 306.64 -2.28018 340.532C-2.34593 337.023 -2.36785 335.261 -2.43359 331.737C43.119 296.696 83.6527 324.75 126.553 350.338C151.954 365.492 168.84 348.53 191.622 332.917C211.884 319.02 230.523 316.461 252.637 320.399C286.464 326.421 313.782 354.49 345.55 325.992C345.55 329.255 345.55 330.879 345.55 334.143H345.528Z" fill="white"/>
<path d="M345.506 347.504C294.431 387.203 233.91 309.336 180.818 350.706C160.097 366.855 151.1 382.576 126.828 371.391C83.6752 351.518 42.0128 322.314 -2.07141 354.812C-2.1262 351.319 -2.14812 349.557 -2.21387 346.048C42.0456 312.845 83.8067 340.792 126.532 363.423C151.133 376.447 163.329 359.593 184.621 343.811C206.12 327.876 226.732 330.036 250.018 334.556C283.747 341.099 313.728 365.369 345.495 339.291C345.495 342.57 345.495 344.225 345.495 347.504H345.506Z" fill="white"/>
<path d="M345.484 360.849C292.415 398.48 227.587 318.346 175.657 362.289C156.283 378.684 151.034 393.378 127.825 384.093C84.727 366.84 41.2017 338.111 -1.89628 368.924C-1.94011 365.461 -1.96203 363.714 -2.00586 360.206C41.6838 328.336 83.9818 357.417 127.113 376.248C150.99 386.667 158.485 371.283 178.67 355.042C231.466 312.569 293.467 391.6 345.473 352.575C345.473 355.885 345.473 357.54 345.473 360.849H345.484Z" fill="white"/>
<path d="M345.462 374.21C313.947 394.542 278.761 378.163 245.635 371.498C220.102 366.365 195.633 352.927 172.15 374.47C153.861 391.248 151.702 404.225 129.622 396.427C86.6336 381.273 40.4564 353.632 -1.77583 382.805C-1.79775 379.373 -1.81966 377.642 -1.85254 374.179C40.9057 343.964 85.3296 372.371 128.395 388.766C151.176 397.438 155.198 383.311 174.123 366.794C225.297 322.115 292.02 402.448 345.473 365.859C345.473 369.184 345.473 370.854 345.473 374.194L345.462 374.21Z" fill="white"/>
<path d="M345.453 387.555C314.354 405.482 280.592 391.401 248.167 385.809C221.167 381.151 194.046 362.397 170.3 388.321C149.929 410.584 150.805 413.174 125.887 406.662C83.1503 395.508 39.8771 369.2 -1.74154 396.412C-1.74154 393.041 -1.74154 391.34 -1.77441 387.908C41.3345 358.49 86.4158 388.613 130.489 400.901C152.504 407.045 152.701 396.749 171.319 379.174C194.966 356.85 219.589 371.559 245.395 376.692C278.368 383.235 314.036 398.695 345.442 379.159C345.442 382.514 345.442 384.185 345.442 387.54L345.453 387.555Z" fill="white"/>
<path d="M345.439 400.901C314.264 417.387 280.513 404.471 248.209 399.323C221.635 395.078 193.977 376.753 170.418 401.636C150.814 422.336 151.701 424.65 127.944 419.057C84.5175 408.838 40.7402 384.675 -1.71127 409.711C-1.73318 406.386 -1.73318 404.716 -1.74414 401.345C40.2251 374.777 83.8271 400.594 126.903 411.228C151.394 417.28 150.222 415.135 170.297 393.209C193.966 367.33 221.263 386.284 248.187 390.788C280.524 396.197 314.362 409.788 345.439 392.458C345.439 395.845 345.439 397.53 345.439 400.901Z" fill="white"/>
<path d="M345.418 414.246C314.111 429.384 280.492 417.525 248.221 412.775C221.998 408.914 194.143 391.814 170.539 414.905C151.231 433.812 150.935 436.003 127.945 431.085C84.4857 421.769 41.0481 399.889 -1.62251 422.673C-1.65539 419.394 -1.6773 417.755 -1.69922 414.43C40.9056 390.206 84.6391 413.51 128.153 423.424C151.582 428.771 151.023 426.457 170.462 406.432C194.011 382.161 221.768 400.073 248.199 404.179C280.492 409.19 314.199 421.723 345.418 405.727C345.418 409.128 345.418 410.829 345.418 414.23V414.246Z" fill="white"/>
<path d="M345.407 427.607C313.958 441.397 280.492 430.61 248.232 426.259C222.152 422.75 194.482 407.106 170.594 428.22C151.132 445.426 148.842 447.189 126.236 442.852C83.2803 434.624 40.807 414.767 -1.49101 435.437C-1.53484 432.188 -1.55675 430.564 -1.60059 427.285C40.9933 405.252 84.146 426.381 127.496 435.329C150.311 440.033 151.231 437.98 170.55 419.685C194.23 397.269 222.053 413.863 248.21 417.602C280.481 422.214 314.046 433.674 345.407 419.027C345.407 422.459 345.407 424.175 345.407 427.592V427.607Z" fill="white"/>
<path d="M345.387 440.953C313.795 453.379 280.493 443.665 248.244 439.727C222.153 436.54 194.944 422.566 170.617 441.489C150.684 456.995 145.666 458.175 123.169 454.375C81.2214 447.296 40.1069 429.369 -1.28159 447.97C-1.33638 444.752 -1.36925 443.128 -1.41309 439.88C40.611 419.931 82.646 439.114 125.306 446.943C147.846 451.08 151.024 449.518 170.617 432.908C194.648 412.546 222.164 427.622 248.244 431.009C280.493 435.207 313.904 445.61 345.409 432.311C345.409 435.758 345.409 437.49 345.409 440.937L345.387 440.953Z" fill="white"/>
<path d="M345.376 454.298C314.266 464.992 282.882 456.412 251.301 453.669C223.731 451.279 197.092 438.393 170.584 454.206C149.216 466.954 144.712 470.064 121.372 466.08C80.5092 459.124 39.2741 444.001 -1.06241 460.38C-1.12816 457.163 -1.16103 455.554 -1.21582 452.321C39.9426 434.655 82.3611 450.911 124.111 458.695C147.419 463.031 149.6 459.446 170.595 445.518C196.796 428.128 223.829 442.362 251.301 444.936C282.926 447.893 314.31 457.178 345.376 445.61C345.376 449.088 345.376 450.82 345.376 454.298Z" fill="white"/>
<path d="M345.364 467.644C314.211 476.99 282.827 469.498 251.312 467.092C223.61 464.978 197.497 454.237 170.573 467.567C148.536 478.476 140.11 480.851 116.605 477.388C77.3419 471.612 38.0026 458.282 -0.832698 472.7C-0.898446 469.482 -0.931322 467.874 -0.99707 464.641C38.8573 448.936 79.4458 463.445 119.793 469.988C143.178 473.773 148.996 470.938 170.584 458.818C197.245 443.849 223.675 455.999 251.301 458.297C282.86 460.933 314.244 469.13 345.364 458.91C345.364 462.404 345.364 464.166 345.364 467.659V467.644Z" fill="white"/>
<path d="M345.342 480.973C288.075 495.652 226.392 458.557 170.55 480.912C147.768 490.029 135.232 491.699 111.442 488.696C73.955 483.976 36.5553 472.546 -0.581508 484.972C-0.647256 481.724 -0.68013 480.115 -0.756836 476.867C37.5086 463.123 76.1905 475.81 114.872 481.218C138.454 484.513 148.283 482.383 170.561 472.102C197.595 459.614 223.576 469.62 251.3 471.642C282.804 473.94 314.177 481.065 345.353 472.178C345.353 475.702 345.353 477.465 345.353 480.989L345.342 480.973Z" fill="white"/>
<path d="M345.331 494.319C287.604 506.623 227.422 476.423 170.528 494.258C113.557 512.138 56.5426 480.514 -0.340513 497.276C-0.406261 493.997 -0.439135 492.358 -0.504883 489.094C56.718 470.677 113.634 506.454 170.539 485.386C226.787 464.564 287.889 499.329 345.342 485.448C345.342 488.987 345.342 490.764 345.342 494.319H345.331Z" fill="white"/>
<path d="M345.311 507.664C287.299 517.516 228.06 493.997 170.498 507.618C113.592 521.087 56.4025 495.591 -0.119047 509.672C-0.184795 506.347 -0.206713 504.692 -0.272461 501.382C56.4573 485.478 113.549 515.065 170.509 498.701C227.655 482.291 287.475 510.238 345.311 498.747C345.311 502.317 345.311 504.094 345.311 507.664Z" fill="white"/>
<path d="M345.298 520.995C287.132 528.38 228.43 511.219 170.484 520.964C113.7 530.51 56.4988 511.066 0.0758333 522.174C0.0210431 518.788 -0.000873893 517.103 -0.0556641 513.732C56.4111 500.586 113.623 524.105 170.495 511.97C228.211 499.651 287.231 521.056 345.309 512.016C345.309 515.617 345.309 517.409 345.309 520.995H345.298Z" fill="white"/>
<path d="M345.276 534.325C287.045 539.243 228.617 528.104 170.463 534.309C113.744 540.362 56.7293 527.123 0.229698 534.861C0.196824 531.383 0.174907 529.667 0.120117 526.235C56.554 516.168 113.7 533.635 170.463 525.269C228.496 516.704 287.089 531.888 345.276 525.3C345.276 528.916 345.276 530.724 345.276 534.34V534.325Z" fill="white"/>
<path d="M345.265 547.655C230.491 552.42 114.96 539.81 0.328443 547.777C0.306527 544.207 0.295569 542.445 0.262695 538.921C56.8061 532.333 113.744 543.549 170.452 538.538C228.65 533.39 287.023 542.69 345.265 538.554C345.265 542.2 345.265 544.008 345.265 547.655Z" fill="white"/>
</g>
<defs>
<clipPath id="clip0_2025_89">
<rect width="346" height="534" fill="white"/>
</clipPath>
</defs>
</svg>
