<svg width="87" height="100" viewBox="0 0 87 100" fill="none" xmlns="http://www.w3.org/2000/svg">
<path d="M57.02 85.3L52.27 100L47.52 85.3C45.28 78.35 39.83 72.9 32.88 70.66L18.18 65.91L32.88 61.16C39.83 58.92 45.28 53.47 47.52 46.52L52.27 31.82L57.02 46.52C59.26 53.47 64.71 58.92 71.66 61.16L86.36 65.91L71.66 70.66C64.71 72.9 59.27 78.35 57.02 85.3Z" fill="white"/>
<path d="M20.83 46.34L18.18 54.55L15.53 46.34C14.41 42.87 11.68 40.14 8.21 39.02L0 36.36L8.21 33.71C11.68 32.59 14.41 29.86 15.53 26.39L18.18 18.18L20.83 26.39C21.95 29.86 24.68 32.59 28.15 33.71L36.36 36.36L28.15 39.01C24.68 40.14 21.96 42.86 20.83 46.34Z" fill="white"/>
<path d="M44.79 17.73L43.18 22.72L41.57 17.73C40.84 15.47 39.07 13.7 36.81 12.97L31.82 11.36L36.81 9.75C39.07 9.02 40.84 7.25 41.57 4.99L43.18 0L44.79 4.99C45.52 7.25 47.29 9.02 49.55 9.75L54.54 11.36L49.55 12.97C47.29 13.71 45.52 15.48 44.79 17.73Z" fill="white"/>
</svg>
