<svg width="59" height="58" viewBox="0 0 59 58" fill="none" xmlns="http://www.w3.org/2000/svg">
<path d="M36.3081 13.6484C37.8259 13.6484 39.3076 13.8035 40.7379 14.0991C39.7444 11.8811 38.3548 9.87965 36.6597 8.18375C33.0768 4.60079 28.1242 2.38361 22.6549 2.38361C17.1857 2.38361 12.2339 4.60079 8.65089 8.18452C5.06716 11.7675 2.84998 16.7193 2.84998 22.1885C2.84998 27.6578 5.06716 32.6104 8.65012 36.1933C10.4827 38.0251 12.673 39.4999 15.1074 40.5041C14.7205 38.8796 14.5155 37.1837 14.5155 35.441C14.5155 29.4236 16.9553 23.9735 20.8984 20.0312C24.8406 16.0882 30.2907 13.6484 36.3081 13.6484ZM37.8305 15.656L42.3593 20.1848C42.2249 18.8474 41.9578 17.5492 41.5708 16.304C40.3663 15.9731 39.1157 15.7535 37.8305 15.656ZM44.4099 22.2346L56.0931 33.9178C55.723 29.0451 53.5934 24.6645 50.339 21.4101C48.4865 19.5576 46.2685 18.0697 43.8026 17.0632C44.1995 18.7062 44.4099 20.4228 44.4099 22.1885V22.2346ZM56.1115 36.6939L44.2502 24.8334C44.0076 26.8317 43.4955 28.7464 42.7493 30.5391L54.8171 42.6061C55.5349 40.7536 55.9825 38.7667 56.1115 36.6939ZM42.4422 23.0254L35.0544 15.6376C32.9816 15.7665 30.9947 16.2141 29.1422 16.932L41.2446 29.0343C41.9386 27.1496 42.3547 25.1297 42.4422 23.0254ZM53.9619 44.5085L41.8633 32.41C41.0449 33.9439 40.0492 35.3688 38.9022 36.6563L51.0115 48.7656C52.17 47.4873 53.165 46.0578 53.9619 44.5085ZM40.4154 30.9621L27.2398 17.7872C25.6913 18.5841 24.2618 19.5791 22.9835 20.7376L37.5211 35.2751C38.6642 33.9769 39.6408 32.5282 40.4154 30.9621ZM16.5047 34.1865L24.2487 41.9305C26.2955 41.767 28.2555 41.2926 30.0796 40.5548L17.7991 28.2743C17.0813 30.126 16.6337 32.1137 16.5047 34.1865ZM26.0053 43.6871L37.5626 55.2444C39.6354 55.1154 41.623 54.6678 43.4748 53.95L31.5651 42.0403C29.8208 42.8242 27.956 43.3854 26.0053 43.6871ZM34.7872 55.2267L23.4887 43.9281C23.2123 43.9381 22.9344 43.9435 22.6549 43.9435C21.1141 43.9435 19.6117 43.783 18.1614 43.4783C19.1595 45.7277 20.5613 47.756 22.2772 49.4719C25.5316 52.7262 29.9137 54.8574 34.7872 55.2267ZM21.5225 41.962L16.5231 36.9626C16.636 38.4497 16.9131 39.8915 17.3361 41.2703C18.6797 41.6442 20.0807 41.8814 21.5225 41.962ZM18.6551 26.3726L31.9589 39.6765C33.4913 38.8604 34.9032 37.8478 36.1622 36.6739L21.6047 22.1164C20.4462 23.3939 19.452 24.8249 18.6551 26.3726ZM33.3946 41.1121L45.3764 53.094C46.9242 52.2971 48.3552 51.3029 49.6327 50.1444L37.5418 38.0535C36.2897 39.2289 34.8978 40.2569 33.3946 41.1121ZM43.0963 14.7271C46.3845 15.8042 49.3279 17.6413 51.7178 20.0312C55.6608 23.9743 58.1007 29.4236 58.1007 35.441C58.1007 41.4584 55.6608 46.9077 51.7178 50.8507C47.7748 54.7937 42.3255 57.2335 36.3081 57.2335C30.2907 57.2335 24.8414 54.7937 20.8984 50.8507C18.6582 48.6105 16.9031 45.8843 15.8053 42.8434C12.5525 41.7655 9.63972 39.9406 7.27129 37.5722C3.33518 33.6361 0.899963 28.196 0.899963 22.1885C0.899963 16.1811 3.33518 10.7418 7.27206 6.80569C11.2082 2.86881 16.6475 0.433594 22.6549 0.433594C28.6623 0.433594 34.1024 2.86881 38.0385 6.80492C40.2573 9.02364 41.9985 11.7207 43.0963 14.7271Z" fill="white"/>
</svg>
