<svg width="94" height="70" viewBox="0 0 94 70" fill="none" xmlns="http://www.w3.org/2000/svg">
<path fill-rule="evenodd" clip-rule="evenodd" d="M83.109 57.9057H92.2731C93.1559 57.9057 93.8747 57.187 93.8747 56.3041V19.8391C93.8747 18.9563 93.156 18.2375 92.2731 18.2375H83.109C82.2262 18.2375 81.5074 18.9563 81.5074 19.8391V56.3001C81.5074 57.1829 82.2262 57.9057 83.109 57.9057ZM10.89 18.2377H1.72593C0.843119 18.2377 0.124329 18.9565 0.124329 19.8393V56.3003C0.124329 57.1831 0.843079 57.9019 1.72593 57.9019H10.89C11.7728 57.9019 12.4916 57.1832 12.4916 56.3003V19.8393C12.4916 18.9565 11.7729 18.2377 10.89 18.2377ZM31.245 20.8783L30.5028 21.4408C28.9637 22.6049 27.4325 23.7611 25.2137 25.3744C23.4676 26.6478 22.5184 27.6986 22.1395 28.5502C21.9442 28.9838 21.9286 29.3276 22.0341 29.5932C22.1552 29.894 22.4403 30.1635 22.8192 30.394C23.6786 30.9174 24.9051 31.1948 26.0301 31.2221H26.0497C28.3231 31.3159 30.3309 30.8667 32.1317 30.1479C33.5145 29.5932 34.784 28.8784 35.9637 28.1206C34.7606 26.7495 33.6903 25.2964 32.7684 23.7612C32.2059 22.8355 31.6981 21.8705 31.245 20.8783ZM54.858 31.2143C57.7213 34.5659 60.5963 38.144 63.4713 41.7223C67.2643 46.4489 71.0572 51.1676 74.7683 55.2923C75.6629 55.1673 76.655 54.6947 77.4753 53.9954C78.3738 53.2337 79.0417 52.2259 79.1003 51.1516V24.6206C79.0964 24.1284 79.0066 23.6206 78.8308 23.1792C78.6824 22.8042 78.4753 22.48 78.2136 22.2613C78.1238 22.1831 78.0183 22.1206 77.9089 22.0699C77.8113 22.0269 77.7019 21.9995 77.5808 21.9839C74.8347 21.6636 72.2136 21.105 69.6863 20.4292C67.6004 19.8706 65.5574 19.2222 63.5574 18.562C62.9519 20.2065 62.2058 21.7847 61.3308 23.2886C59.6316 26.2144 57.4479 28.8627 54.858 31.2143ZM52.3736 30.2104C51.0494 31.3393 49.6158 32.3901 48.0924 33.3588L46.9986 34.0541L45.9048 33.3588C41.1275 30.3158 37.3736 26.7611 34.8228 22.5268C32.2837 18.312 30.9283 13.4018 30.9283 7.63183V6.22563L46.9983 0.12793L63.0683 6.22563V7.63183C63.0683 13.0185 61.7089 17.8618 59.2558 22.0848C57.5058 25.0965 55.2011 27.7957 52.4316 30.1629C52.4199 30.1707 52.4082 30.1825 52.3965 30.1942L52.3736 30.2104ZM53.6041 10.2264C54.0377 9.72643 54.7955 9.67174 55.2955 10.1053C55.7955 10.5389 55.8502 11.2967 55.4166 11.7967L47.3658 21.0584L47.3463 21.0819C46.9166 21.5858 46.1627 21.6522 45.6549 21.2225L40.9401 17.2459C40.4362 16.8201 40.3698 16.0623 40.7995 15.5545C41.2292 15.0506 41.9831 14.9842 42.4909 15.4139L46.3034 18.6287L53.6041 10.2264ZM24.3461 23.0464L23.8032 23.441C21.686 24.984 20.4868 26.3668 19.9477 27.5738C19.4594 28.6597 19.4633 29.6324 19.807 30.4879C20.1352 31.3082 20.768 31.9527 21.5687 32.4449C22.7875 33.1909 24.4554 33.5777 25.9515 33.6207C28.5999 33.73 30.932 33.2105 33.0179 32.3746C34.7171 31.6949 36.2367 30.8121 37.6312 29.8941C39.6546 31.8902 41.9906 33.7105 44.6117 35.3785L46.3305 36.4723C46.7133 36.7262 47.2251 36.7457 47.6352 36.484L49.3735 35.3785C50.6547 34.5621 51.8774 33.6949 53.0258 32.773C55.85 36.0777 58.725 39.6558 61.5961 43.23C65.4516 48.0308 69.3031 52.8277 73.0731 57.003C73.0692 57.9444 72.9247 58.7178 72.6591 59.3311C72.4052 59.917 72.038 60.3506 71.5771 60.6436C71.0966 60.9483 70.4912 61.1123 69.7998 61.1358C68.7217 61.1748 67.4443 60.8975 66.0498 60.3155L59.0068 54.2217C58.5068 53.7881 57.749 53.8427 57.3154 54.3427C56.8818 54.8427 56.9365 55.6005 57.4365 56.0341L64.1748 61.8583C64.0888 62.8661 63.8662 63.667 63.542 64.2764C63.1904 64.9404 62.7099 65.3622 62.1592 65.5575C61.5654 65.7685 60.8584 65.7529 60.0928 65.5302C59.1006 65.2411 58.0342 64.6083 57.003 63.6786L56.9991 63.6825C56.9483 63.6356 56.8936 63.5966 56.835 63.5614L49.2178 58.1669C48.6787 57.7841 47.9326 57.913 47.5498 58.4521C47.167 58.9911 47.2959 59.7373 47.835 60.1201L54.9678 65.1709C54.9013 66.0849 54.7373 66.8037 54.4834 67.335C54.2178 67.9014 53.8545 68.2373 53.4209 68.378C52.9248 68.5381 52.2842 68.4835 51.5498 68.253C50.3506 67.8741 48.9873 67.046 47.6045 65.9014C47.5498 65.8467 47.4873 65.7998 47.4209 65.7569L43.1201 62.7295C42.5771 62.3467 41.831 62.4796 41.4482 63.0186C41.0654 63.5616 41.1982 64.3077 41.7411 64.6905L45.4326 67.2882C45.3505 67.5812 45.2451 67.8585 45.1201 68.1163C44.8193 68.7335 44.4091 69.2257 43.917 69.5304C43.4599 69.8117 42.9131 69.9367 42.2959 69.8469C41.9638 69.7961 41.6044 69.6828 41.2216 69.4992C37.9716 67.9133 34.7373 65.9797 31.3701 63.6515C27.9834 61.3077 24.4443 58.546 20.6081 55.3117C20.1549 54.9289 19.7565 54.632 19.2917 54.3937C18.8034 54.1437 18.2917 53.9758 17.6433 53.8781C16.7761 53.7453 16.0183 53.4406 15.53 52.9172C15.1315 52.4875 14.8893 51.8664 14.8854 51.007L14.8971 25.995C14.901 25.1864 15.2331 24.4481 15.7682 23.913C16.3034 23.3778 17.0455 23.0419 17.858 23.0419L24.3461 23.0464Z" fill="white"/>
</svg>
